<svg xmlns="http://www.w3.org/2000/svg" xmlns:xlink="http://www.w3.org/1999/xlink" viewBox="0 0 928.39 211.77"><defs><style>.cls-1{fill:url(#Безымянный_градиент_45);}.cls-2{fill:url(#Безымянный_градиент_45-9);}</style><linearGradient id="Безымянный_градиент_45" x1="463.37" x2="463.37" y2="114.07" gradientUnits="userSpaceOnUse"><stop offset="0" stop-color="#a00"/><stop offset="0.19" stop-color="#7f0000" stop-opacity="0.75"/><stop offset="0.46" stop-color="#490000" stop-opacity="0.43"/><stop offset="0.7" stop-color="#210000" stop-opacity="0.2"/><stop offset="0.89" stop-color="#090000" stop-opacity="0.05"/><stop offset="1" stop-opacity="0"/></linearGradient><linearGradient id="Безымянный_градиент_45-9" x1="464.98" y1="211.77" x2="464.98" y2="113.54" xlink:href="#Безымянный_градиент_45"/></defs><g id="Слой_2" data-name="Слой 2"><g id="Слой_1-2" data-name="Слой 1"><path d="M0,111.58V2.64H30.19L73.77,73.76H57.89L100.22,2.64h30.19l.32,108.94H97.27L97,53.06h5.3L73.3,101.77H57.11L26.92,53.06h6.54v58.52Z"/><path d="M137,111.58,184.57,2.64h36.11L268.3,111.58h-38L195.15,20.07h14.32L174.3,111.58Zm28.32-19,9.34-26.46h50.11l9.34,26.46Z"/><path d="M315.14,114.06c-15.79.08-34.85-3.65-47.47-11.2L279.5,76.09c12.42,7.2,30.21,11.84,44.28,9.26,5.9-.83,8.32-6.85,2.57-9.88a35.05,35.05,0,0,0-8.64-2.88C302.12,69,281.49,67,272.65,51.43c-8.84-17.7.36-38.79,19.38-46.3,19.48-8.2,49.92-6.22,69.18,4.51l-11,26.61c-12.05-6-26.08-10.06-38.75-7.16-5.59,1.1-8.33,7.59-2.49,10.35,13.8,5.5,32.25,5,45.05,14.24,13.63,8.5,15.41,29,6.22,41.94C350.19,109.39,334,114,315.14,114.06Z"/><path d="M417.7,114.06c-15.79.08-34.86-3.65-47.47-11.2l11.83-26.77c12.42,7.2,30.2,11.84,44.27,9.26,5.91-.83,8.33-6.85,2.57-9.88a35.05,35.05,0,0,0-8.64-2.88C404.67,69,384.05,67,375.21,51.43c-8.85-17.7.36-38.79,19.38-46.3,19.48-8.2,49.92-6.22,69.17,4.51L452.71,36.25c-12-6-26.07-10.06-38.75-7.16-5.58,1.1-8.32,7.59-2.49,10.35,13.8,5.5,32.25,5,45,14.24,13.64,8.5,15.41,29,6.23,41.94C452.75,109.39,436.51,114,417.7,114.06Z"/><path d="M467.81,111.58,515.43,2.64h36.1l47.63,108.94h-38L526,20.07h14.32l-35.17,91.51Zm28.32-19,9.34-26.46h50.11l9.34,26.46Z"/><path d="M660.16,114.06c-23.81.32-46.87-11.8-56.18-33.92C595,59.26,599.46,31.4,616.66,16,641.31-6.89,688.46-5.5,709,21.93l-23.19,20.7C669.7,20.62,636,28,636.51,57.11c-.53,29.08,33.2,36.49,49.33,14.47L709,92.28C697.29,107.29,679.92,114.12,660.16,114.06Z"/><path d="M719.92,111.58V2.64h52.45c17.82,0,34.1,5.1,43.57,19.22,12.49,19.89,5.75,48.47-17.2,57.5-13.7,7-42.63,4.39-58.43,4.83l16.34-15.1v42.49Zm36.73-38.44L740.31,56.48H770c9.14.07,14.83-3.93,14.94-12.76C784.86,34.9,779.17,30.9,770,31H740.31l16.34-16.65Zm28.48,38.44L758.36,71.89h38.91l27.07,39.69Z"/><path d="M872.28,83.87h54.47v27.71H836.17V2.64h88.55v27.7H872.28ZM869.79,43.1h48.55V69.56H869.79Z"/><path class="cls-1" d="M0,111.58V2.64H30.19L73.77,73.76H57.89L100.22,2.64h30.19l.32,108.94H97.27L97,53.06h5.3L73.3,101.77H57.11L26.92,53.06h6.54v58.52Z"/><path class="cls-1" d="M137,111.58,184.57,2.64h36.11L268.3,111.58h-38L195.15,20.07h14.32L174.3,111.58Zm28.32-19,9.34-26.46h50.11l9.34,26.46Z"/><path class="cls-1" d="M315.14,114.06c-15.79.08-34.85-3.65-47.47-11.2L279.5,76.09c12.42,7.2,30.21,11.84,44.28,9.26,5.9-.83,8.32-6.85,2.57-9.88a35.05,35.05,0,0,0-8.64-2.88C302.12,69,281.49,67,272.65,51.43c-8.84-17.7.36-38.79,19.38-46.3,19.48-8.2,49.92-6.22,69.18,4.51l-11,26.61c-12.05-6-26.08-10.06-38.75-7.16-5.59,1.1-8.33,7.59-2.49,10.35,13.8,5.5,32.25,5,45.05,14.24,13.63,8.5,15.41,29,6.22,41.94C350.19,109.39,334,114,315.14,114.06Z"/><path class="cls-1" d="M417.7,114.06c-15.79.08-34.86-3.65-47.47-11.2l11.83-26.77c12.42,7.2,30.2,11.84,44.27,9.26,5.91-.83,8.33-6.85,2.57-9.88a35.05,35.05,0,0,0-8.64-2.88C404.67,69,384.05,67,375.21,51.43c-8.85-17.7.36-38.79,19.38-46.3,19.48-8.2,49.92-6.22,69.17,4.51L452.71,36.25c-12-6-26.07-10.06-38.75-7.16-5.58,1.1-8.32,7.59-2.49,10.35,13.8,5.5,32.25,5,45,14.24,13.64,8.5,15.41,29,6.23,41.94C452.75,109.39,436.51,114,417.7,114.06Z"/><path class="cls-1" d="M467.81,111.58,515.43,2.64h36.1l47.63,108.94h-38L526,20.07h14.32l-35.17,91.51Zm28.32-19,9.34-26.46h50.11l9.34,26.46Z"/><path class="cls-1" d="M660.16,114.06c-23.81.32-46.87-11.8-56.18-33.92C595,59.26,599.46,31.4,616.66,16,641.31-6.89,688.46-5.5,709,21.93l-23.19,20.7C669.7,20.62,636,28,636.51,57.11c-.53,29.08,33.2,36.49,49.33,14.47L709,92.28C697.29,107.29,679.92,114.12,660.16,114.06Z"/><path class="cls-1" d="M719.92,111.58V2.64h52.45c17.82,0,34.1,5.1,43.57,19.22,12.49,19.89,5.75,48.47-17.2,57.5-13.7,7-42.63,4.39-58.43,4.83l16.34-15.1v42.49Zm36.73-38.44L740.31,56.48H770c9.14.07,14.83-3.93,14.94-12.76C784.86,34.9,779.17,30.9,770,31H740.31l16.34-16.65Zm28.48,38.44L758.36,71.89h38.91l27.07,39.69Z"/><path class="cls-1" d="M872.28,83.87h54.47v27.71H836.17V2.64h88.55v27.7H872.28ZM869.79,43.1h48.55V69.56H869.79Z"/><path d="M1.57,209.62V115.81h26l37.52,61.25H51.42l36.45-61.25h26l.27,93.81H85.33l-.27-50.39h4.56l-24.93,42H50.75l-26-42h5.62v50.39Z"/><path d="M119.23,209.62l41-93.81h31.09l41,93.81h-32.7l-30.29-78.8h12.33l-30.28,78.8Zm24.39-16.35,8-22.78h43.15l8,22.78Z"/><path d="M272.41,211.76c-13.6.07-30-3.15-40.88-9.64l10.19-23.05c10.69,6.2,26,10.19,38.13,8,5.08-.72,7.16-5.9,2.21-8.51a30.26,30.26,0,0,0-7.44-2.48c-13.43-3.14-31.19-4.81-38.8-18.22-7.66-15,.42-33.59,16.69-39.87,16.77-7.07,43-5.35,59.56,3.88l-9.51,22.92c-8.55-4.25-17.06-6.94-26.13-7-5.29.16-11.57.37-12.2,5.9.27,6.13,15,6.59,20.44,8.17,7.27,1.45,15,3.72,21.17,7.91,11.74,7.31,13.27,25,5.36,36.11C302.59,207.74,288.61,211.75,272.41,211.76Z"/><path d="M374,211.76c-20.51.28-40.37-10.16-48.38-29.21-7.78-18-3.9-42,10.92-55.21,21.22-19.73,61.83-18.54,79.54,5.09l-20,17.82c-13.9-19-42.94-12.58-42.48,12.47-.46,25,28.59,31.42,42.48,12.46l20,17.82C406,205.93,391,211.81,374,211.76Z"/><path d="M413.65,209.62l41-93.81h31.09l41,93.81h-32.7l-30.29-78.8H476.1l-30.28,78.8ZM438,193.27l8-22.78h43.15l8,22.78Z"/><path d="M531.85,209.62V115.81H577c15.35,0,29.37,4.4,37.53,16.55,10.79,16.89,4.81,42-14.81,49.52-11.68,6-36.83,3.78-50.32,4.15l14.07-13v36.58Zm31.63-33.1-14.07-14.34H575c7.87.06,12.78-3.39,12.87-11-.09-7.6-5-11-12.87-11H549.41l14.07-14.34ZM588,209.62l-23-34.17h33.51l23.31,34.17Z"/><path d="M621.5,209.62l41-93.81H693.6l41,93.81h-32.7l-30.29-78.8H684l-30.28,78.8Zm24.4-16.35,8-22.78h43.15l8,22.78Z"/><path d="M739.7,209.62V115.81h46.24q15.67,0,27.6,5.7c16.37,7.84,25.47,22.49,25.33,41.07.14,18.68-8.89,33.47-25.33,41.35q-11.92,5.69-27.6,5.69ZM771.33,185H784.6c13.17.48,22.91-9,22.38-22.38.52-13.27-9.35-22.57-22.38-22.11H771.33Z"/><path d="M881.49,185.77h46.9v23.85h-78V115.81h76.25v23.86H881.49Zm-2.15-35.11h41.81v22.78H879.34Z"/><path class="cls-2" d="M1.57,209.62V115.81h26l37.52,61.25H51.42l36.45-61.25h26l.27,93.81H85.33l-.27-50.39h4.56l-24.93,42H50.75l-26-42h5.62v50.39Z"/><path class="cls-2" d="M119.23,209.62l41-93.81h31.09l41,93.81h-32.7l-30.29-78.8h12.33l-30.28,78.8Zm24.39-16.35,8-22.78h43.15l8,22.78Z"/><path class="cls-2" d="M272.41,211.76c-13.6.07-30-3.15-40.88-9.64l10.19-23.05c10.69,6.2,26,10.19,38.13,8,5.08-.72,7.16-5.9,2.21-8.51a30.26,30.26,0,0,0-7.44-2.48c-13.43-3.14-31.19-4.81-38.8-18.22-7.66-15,.42-33.59,16.69-39.87,16.77-7.07,43-5.35,59.56,3.88l-9.51,22.92c-8.55-4.25-17.06-6.94-26.13-7-5.29.16-11.57.37-12.2,5.9.27,6.13,15,6.59,20.44,8.17,7.27,1.45,15,3.72,21.17,7.91,11.74,7.31,13.27,25,5.36,36.11C302.59,207.74,288.61,211.75,272.41,211.76Z"/><path class="cls-2" d="M374,211.76c-20.51.28-40.37-10.16-48.38-29.21-7.78-18-3.9-42,10.92-55.21,21.22-19.73,61.83-18.54,79.54,5.09l-20,17.82c-13.9-19-42.94-12.58-42.48,12.47-.46,25,28.59,31.42,42.48,12.46l20,17.82C406,205.93,391,211.81,374,211.76Z"/><path class="cls-2" d="M413.65,209.62l41-93.81h31.09l41,93.81h-32.7l-30.29-78.8H476.1l-30.28,78.8ZM438,193.27l8-22.78h43.15l8,22.78Z"/><path class="cls-2" d="M531.85,209.62V115.81H577c15.35,0,29.37,4.4,37.53,16.55,10.79,16.89,4.81,42-14.81,49.52-11.68,6-36.83,3.78-50.32,4.15l14.07-13v36.58Zm31.63-33.1-14.07-14.34H575c7.87.06,12.78-3.39,12.87-11-.09-7.6-5-11-12.87-11H549.41l14.07-14.34ZM588,209.62l-23-34.17h33.51l23.31,34.17Z"/><path class="cls-2" d="M621.5,209.62l41-93.81H693.6l41,93.81h-32.7l-30.29-78.8H684l-30.28,78.8Zm24.4-16.35,8-22.78h43.15l8,22.78Z"/><path class="cls-2" d="M739.7,209.62V115.81h46.24q15.67,0,27.6,5.7c16.37,7.84,25.47,22.49,25.33,41.07.14,18.68-8.89,33.47-25.33,41.35q-11.92,5.69-27.6,5.69ZM771.33,185H784.6c13.17.48,22.91-9,22.38-22.38.52-13.27-9.35-22.57-22.38-22.11H771.33Z"/><path class="cls-2" d="M881.49,185.77h46.9v23.85h-78V115.81h76.25v23.86H881.49Zm-2.15-35.11h41.81v22.78H879.34Z"/></g></g></svg>