<svg xmlns="http://www.w3.org/2000/svg" xmlns:xlink="http://www.w3.org/1999/xlink" viewBox="0 0 1805.62 126.3"><defs><style>.cls-1{fill:#fff;}.cls-2{fill:url(#Безымянный_градиент_6);}.cls-3{mask:url(#mask);}.cls-4{fill:#cbd5e1;}</style><linearGradient id="Безымянный_градиент_6" x1="423.8" y1="-83.78" x2="423.8" y2="-238.78" gradientTransform="matrix(1, 0, 0, -1, 479.01, -110.13)" gradientUnits="userSpaceOnUse"><stop offset="0" stop-color="#34090b"/><stop offset="0.37" stop-color="#543435"/><stop offset="0.7" stop-color="#a75155"/><stop offset="1" stop-color="#a76869"/></linearGradient><mask id="mask" x="-0.3" y="-0.35" width="1806" height="127" maskUnits="userSpaceOnUse"><g id="path-1-outside-1_1_2" data-name="path-1-outside-1 1 2"><rect class="cls-1" x="-0.3" y="-0.35" width="1806" height="127"/><path d="M6,97.65V8.05H30.83L66.67,66.54H53.62L88.43,8.05h24.83l.26,89.6H86l-.26-48.13H90.1L66.29,89.58H53L28.14,49.52h5.38V97.65Zm112.4,0,39.16-89.6h29.7l39.17,89.6H195.2L166.27,22.38h11.78L149.12,97.65ZM141.69,82l7.68-21.76h41.22L198.27,82Zm123,17.67a91.8,91.8,0,0,1-21.76-2.56,62,62,0,0,1-17.28-6.66l9.73-22a64.54,64.54,0,0,0,14.2,6,58.14,58.14,0,0,0,15.36,2.18,34,34,0,0,0,6.79-.52,8.87,8.87,0,0,0,3.71-1.66,3.67,3.67,0,0,0,1.15-2.69c0-1.62-.89-2.9-2.69-3.84a27.26,27.26,0,0,0-7.16-2.3c-2.9-.68-6.1-1.37-9.6-2.05a106.53,106.53,0,0,1-10.63-2.94,43.24,43.24,0,0,1-9.73-4.74,22.61,22.61,0,0,1-7-7.68,24.6,24.6,0,0,1-2.68-12,26.32,26.32,0,0,1,4.6-15.11q4.74-6.9,14-11T268.75,6a84.05,84.05,0,0,1,17.92,1.92,56.58,56.58,0,0,1,15.88,5.89L293.46,35.7a68.14,68.14,0,0,0-12.93-5,45.91,45.91,0,0,0-12-1.66,24.93,24.93,0,0,0-6.91.77,8,8,0,0,0-3.72,2.05,4.4,4.4,0,0,0-1,2.81q0,2.31,2.69,3.71a31.19,31.19,0,0,0,7,2.18c3,.6,6.23,1.24,9.73,1.92a77,77,0,0,1,10.62,2.82,40.11,40.11,0,0,1,9.6,4.73,22,22,0,0,1,7.17,7.68,23.6,23.6,0,0,1,2.69,11.78,26.15,26.15,0,0,1-4.74,15.1q-4.61,6.78-13.82,11T264.66,99.7Zm84.12,0A91.86,91.86,0,0,1,327,97.14a62.22,62.22,0,0,1-17.28-6.66l9.73-22a64.62,64.62,0,0,0,14.21,6A58,58,0,0,0,349,76.66a33.92,33.92,0,0,0,6.78-.52,8.75,8.75,0,0,0,3.71-1.66,3.68,3.68,0,0,0,1.16-2.69q0-2.43-2.69-3.84a27.22,27.22,0,0,0-7.17-2.3c-2.9-.68-6.1-1.37-9.6-2.05a105.62,105.62,0,0,1-10.62-2.94,43.24,43.24,0,0,1-9.73-4.74,22.51,22.51,0,0,1-7-7.68,24.6,24.6,0,0,1-2.69-12,26.33,26.33,0,0,1,4.61-15.11q4.74-6.9,13.95-11T352.88,6A84.12,84.12,0,0,1,370.8,7.92a56.4,56.4,0,0,1,15.87,5.89L377.58,35.7a67.62,67.62,0,0,0-12.93-5,45.8,45.8,0,0,0-12-1.66,25,25,0,0,0-6.91.77A7.91,7.91,0,0,0,342,31.86a4.41,4.41,0,0,0-1,2.81q0,2.31,2.69,3.71a31.35,31.35,0,0,0,7,2.18q4.49.9,9.73,1.92a76.79,76.79,0,0,1,10.63,2.82A40.23,40.23,0,0,1,380.65,50a22,22,0,0,1,7.17,7.68,23.49,23.49,0,0,1,2.69,11.78,26.21,26.21,0,0,1-4.73,15.1q-4.62,6.78-13.83,11T348.78,99.7Zm41-2,39.17-89.6h29.7l39.16,89.6H466.57L437.64,22.38h11.78L420.49,97.65ZM413.07,82l7.68-21.76H462L469.64,82ZM547.71,99.7a58.36,58.36,0,0,1-20-3.33,48.59,48.59,0,0,1-15.87-9.73A44.41,44.41,0,0,1,501.5,71.79a47.27,47.27,0,0,1-3.71-18.94,47.32,47.32,0,0,1,3.71-19,44.47,44.47,0,0,1,10.37-14.84,46.49,46.49,0,0,1,15.87-9.6,56.31,56.31,0,0,1,20-3.46A55.69,55.69,0,0,1,571,10.61,43.22,43.22,0,0,1,587.9,23.92l-19.07,17A29.88,29.88,0,0,0,560,33.26a20.7,20.7,0,0,0-10.75-2.81A23,23,0,0,0,540.67,32,18.87,18.87,0,0,0,534,36.46a21.53,21.53,0,0,0-4.22,7.17,26.18,26.18,0,0,0-1.53,9.22,27.23,27.23,0,0,0,1.53,9.34,21.62,21.62,0,0,0,4.22,7,18.74,18.74,0,0,0,6.66,4.48,22.8,22.8,0,0,0,8.58,1.54A21.42,21.42,0,0,0,560,72.56a31.47,31.47,0,0,0,8.83-7.81l19.07,17A44.91,44.91,0,0,1,571,95.09,55.69,55.69,0,0,1,547.71,99.7Zm48.92-2V8.05h43.13q12.54,0,21.63,4.09A31.86,31.86,0,0,1,675.6,23.92a31.73,31.73,0,0,1,5,17.92,31.73,31.73,0,0,1-5,17.92,31.64,31.64,0,0,1-14.21,11.39q-9.09,4-21.63,4H613.39L626.83,62.7v35Zm53.63,0L628.24,65h32l22.27,32.64ZM626.83,66,613.39,52.34h24.45q6.27,0,9.22-2.82a9.9,9.9,0,0,0,3.07-7.68,9.9,9.9,0,0,0-3.07-7.68q-3-2.82-9.22-2.82H613.39l13.44-13.69Zm92.82-24.7h39.93V63.09H719.65Zm2.05,33.53h44.8V97.65H692V8.05h72.83V30.83H721.7Zm94.8,22.79V8.05h24.83l35.84,58.49h-13L898.93,8.05h24.83l.26,89.6H896.5l-.26-48.13h4.36L876.79,89.58H863.48L838.64,49.52H844V97.65Zm112.4,0,39.17-89.6h29.69l39.17,89.6H1005.7L976.77,22.38h11.78L959.62,97.65ZM952.19,82l7.68-21.76h41.22L1008.77,82Zm123,17.67a91.86,91.86,0,0,1-21.76-2.56,62.22,62.22,0,0,1-17.28-6.66l9.73-22a64.62,64.62,0,0,0,14.21,6,58,58,0,0,0,15.36,2.18,33.92,33.92,0,0,0,6.78-.52,8.86,8.86,0,0,0,3.72-1.66,3.71,3.71,0,0,0,1.15-2.69q0-2.43-2.69-3.84a27.22,27.22,0,0,0-7.17-2.3c-2.9-.68-6.1-1.37-9.6-2.05A105.62,105.62,0,0,1,1057,60.66a43.24,43.24,0,0,1-9.73-4.74,22.51,22.51,0,0,1-7-7.68,24.6,24.6,0,0,1-2.69-12,26.33,26.33,0,0,1,4.61-15.11q4.74-6.9,13.95-11T1079.25,6a84.12,84.12,0,0,1,17.92,1.92A56.4,56.4,0,0,1,1113,13.81L1104,35.7a67.8,67.8,0,0,0-12.92-5A45.93,45.93,0,0,0,1079,29a25,25,0,0,0-6.91.77,8,8,0,0,0-3.71,2.05,4.4,4.4,0,0,0-1,2.81q0,2.31,2.68,3.71a31.35,31.35,0,0,0,7,2.18q4.48.9,9.73,1.92a76.79,76.79,0,0,1,10.63,2.82A40.48,40.48,0,0,1,1107,50a22.08,22.08,0,0,1,7.16,7.68,23.49,23.49,0,0,1,2.69,11.78,26.21,26.21,0,0,1-4.73,15.1q-4.62,6.78-13.83,11T1075.15,99.7Zm97.7,0a58,58,0,0,1-20.23-3.46,48.3,48.3,0,0,1-16-9.73,46.53,46.53,0,0,1-10.62-15,46.47,46.47,0,0,1-3.71-18.69A45.86,45.86,0,0,1,1126,34.16a45.08,45.08,0,0,1,10.62-14.85,47.29,47.29,0,0,1,16-9.85A57.73,57.73,0,0,1,1172.85,6a57,57,0,0,1,20.22,3.46,47.09,47.09,0,0,1,16,9.85,43.64,43.64,0,0,1,10.5,14.85,44.63,44.63,0,0,1,3.84,18.69,46,46,0,0,1-14.34,33.66,48.09,48.09,0,0,1-16,9.73A57.22,57.22,0,0,1,1172.85,99.7Zm29.31,20.6a49.93,49.93,0,0,1-11.65-1.28,38.35,38.35,0,0,1-10.49-4,59.36,59.36,0,0,1-10.5-7.81q-5.51-4.86-12.29-12.16l31.23-7.68a72.3,72.3,0,0,0,5.25,7.29,14,14,0,0,0,4.23,3.59,11.31,11.31,0,0,0,4.86,1q6.66,0,12.42-5.76l13,15.36Q1218.67,120.31,1202.16,120.3Zm-29.31-45a19.54,19.54,0,0,0,7.81-1.54,18.55,18.55,0,0,0,6.4-4.35,20.6,20.6,0,0,0,4.35-7,27.67,27.67,0,0,0,1.53-9.47,26.61,26.61,0,0,0-1.53-9.35,19.18,19.18,0,0,0-4.35-7,18,18,0,0,0-6.4-4.48,19.71,19.71,0,0,0-7.81-1.53,20.64,20.64,0,0,0-7.94,1.53,19.49,19.49,0,0,0-6.4,4.48,19.91,19.91,0,0,0-4.22,7,26.38,26.38,0,0,0-1.54,9.35,27.42,27.42,0,0,0,1.54,9.47,21.45,21.45,0,0,0,4.22,7,20.19,20.19,0,0,0,6.4,4.35A20.47,20.47,0,0,0,1172.85,75.25Zm104.4,24.45q-20.61,0-32.13-11.14T1233.6,57.33V8.05h30.21V56.43q0,10.24,3.71,14.59a12.64,12.64,0,0,0,10,4.23q6.39,0,10-4.23t3.71-14.59V8.05h29.7V57.33q0,20.1-11.52,31.23T1277.25,99.7Zm85.14-58.37h39.94V63.09h-39.94Zm2,33.53h44.8V97.65h-74.49V8.05h72.83V30.83h-43.14Zm56.43,22.79V8.05H1464q12.54,0,21.63,4.09a31.92,31.92,0,0,1,14.21,11.78,31.73,31.73,0,0,1,5,17.92,31.73,31.73,0,0,1-5,17.92,31.69,31.69,0,0,1-14.21,11.39q-9.09,4-21.63,4h-26.37l13.44-12.42v35Zm53.63,0-22-32.64h32l22.27,32.64ZM1451.08,66l-13.44-13.69h24.45q6.27,0,9.21-2.82a9.91,9.91,0,0,0,3.08-7.68,9.91,9.91,0,0,0-3.08-7.68q-2.94-2.82-9.21-2.82h-24.45l13.44-13.69Zm55.44,31.62,39.17-89.6h29.69l39.17,89.6h-31.23l-28.93-75.27h11.78l-28.93,75.27ZM1529.81,82l7.68-21.76h41.22L1586.39,82Zm89.56,15.62V8.05h44.16q15,0,26.37,5.5a41.88,41.88,0,0,1,17.79,15.36q6.4,10,6.4,23.81t-6.4,24.06a42.64,42.64,0,0,1-17.79,15.49q-11.4,5.39-26.37,5.38Zm30.21-23.55h12.67a24,24,0,0,0,11.14-2.44,17.52,17.52,0,0,0,7.55-7.16,24.07,24.07,0,0,0,2.69-11.78,23,23,0,0,0-2.69-11.52,17.48,17.48,0,0,0-7.55-7.17,24.11,24.11,0,0,0-11.14-2.43h-12.67Zm103.19-32.77h39.94V63.09h-39.94Zm2,33.53h44.8V97.65h-74.5V8.05H1798V30.83h-43.13Z"/></g></mask></defs><g id="Слой_2" data-name="Слой 2"><g id="Слой_1-2" data-name="Слой 1"><path class="cls-2" d="M6,97.65V8.05H30.83L66.67,66.54H53.62L88.43,8.05h24.83l.26,89.6H86l-.26-48.13H90.1L66.29,89.58H53L28.14,49.52h5.38V97.65Zm112.4,0,39.16-89.6h29.7l39.17,89.6H195.2L166.27,22.38h11.78L149.12,97.65ZM141.69,82l7.68-21.76h41.22L198.27,82Zm123,17.67a91.8,91.8,0,0,1-21.76-2.56,62,62,0,0,1-17.28-6.66l9.73-22a64.54,64.54,0,0,0,14.2,6,58.14,58.14,0,0,0,15.36,2.18,34,34,0,0,0,6.79-.52,8.87,8.87,0,0,0,3.71-1.66,3.67,3.67,0,0,0,1.15-2.69c0-1.62-.89-2.9-2.69-3.84a27.26,27.26,0,0,0-7.16-2.3c-2.9-.68-6.1-1.37-9.6-2.05a106.53,106.53,0,0,1-10.63-2.94,43.24,43.24,0,0,1-9.73-4.74,22.61,22.61,0,0,1-7-7.68,24.6,24.6,0,0,1-2.68-12,26.32,26.32,0,0,1,4.6-15.11q4.74-6.9,14-11T268.75,6a84.05,84.05,0,0,1,17.92,1.92,56.58,56.58,0,0,1,15.88,5.89L293.46,35.7a68.14,68.14,0,0,0-12.93-5,45.91,45.91,0,0,0-12-1.66,24.93,24.93,0,0,0-6.91.77,8,8,0,0,0-3.72,2.05,4.4,4.4,0,0,0-1,2.81q0,2.31,2.69,3.71a31.19,31.19,0,0,0,7,2.18c3,.6,6.23,1.24,9.73,1.92a77,77,0,0,1,10.62,2.82,40.11,40.11,0,0,1,9.6,4.73,22,22,0,0,1,7.17,7.68,23.6,23.6,0,0,1,2.69,11.78,26.15,26.15,0,0,1-4.74,15.1q-4.61,6.78-13.82,11T264.66,99.7Zm84.12,0A91.86,91.86,0,0,1,327,97.14a62.22,62.22,0,0,1-17.28-6.66l9.73-22a64.62,64.62,0,0,0,14.21,6A58,58,0,0,0,349,76.66a33.92,33.92,0,0,0,6.78-.52,8.75,8.75,0,0,0,3.71-1.66,3.68,3.68,0,0,0,1.16-2.69q0-2.43-2.69-3.84a27.22,27.22,0,0,0-7.17-2.3c-2.9-.68-6.1-1.37-9.6-2.05a105.62,105.62,0,0,1-10.62-2.94,43.24,43.24,0,0,1-9.73-4.74,22.51,22.51,0,0,1-7-7.68,24.6,24.6,0,0,1-2.69-12,26.33,26.33,0,0,1,4.61-15.11q4.74-6.9,13.95-11T352.88,6A84.12,84.12,0,0,1,370.8,7.92a56.4,56.4,0,0,1,15.87,5.89L377.58,35.7a67.62,67.62,0,0,0-12.93-5,45.8,45.8,0,0,0-12-1.66,25,25,0,0,0-6.91.77A7.91,7.91,0,0,0,342,31.86a4.41,4.41,0,0,0-1,2.81q0,2.31,2.69,3.71a31.35,31.35,0,0,0,7,2.18q4.49.9,9.73,1.92a76.79,76.79,0,0,1,10.63,2.82A40.23,40.23,0,0,1,380.65,50a22,22,0,0,1,7.17,7.68,23.49,23.49,0,0,1,2.69,11.78,26.21,26.21,0,0,1-4.73,15.1q-4.62,6.78-13.83,11T348.78,99.7Zm41-2,39.17-89.6h29.7l39.16,89.6H466.57L437.64,22.38h11.78L420.49,97.65ZM413.07,82l7.68-21.76H462L469.64,82ZM547.71,99.7a58.36,58.36,0,0,1-20-3.33,48.59,48.59,0,0,1-15.87-9.73A44.41,44.41,0,0,1,501.5,71.79a47.27,47.27,0,0,1-3.71-18.94,47.32,47.32,0,0,1,3.71-19,44.47,44.47,0,0,1,10.37-14.84,46.49,46.49,0,0,1,15.87-9.6,56.31,56.31,0,0,1,20-3.46A55.69,55.69,0,0,1,571,10.61,43.22,43.22,0,0,1,587.9,23.92l-19.07,17A29.88,29.88,0,0,0,560,33.26a20.7,20.7,0,0,0-10.75-2.81A23,23,0,0,0,540.67,32,18.87,18.87,0,0,0,534,36.46a21.53,21.53,0,0,0-4.22,7.17,26.18,26.18,0,0,0-1.53,9.22,27.23,27.23,0,0,0,1.53,9.34,21.62,21.62,0,0,0,4.22,7,18.74,18.74,0,0,0,6.66,4.48,22.8,22.8,0,0,0,8.58,1.54A21.42,21.42,0,0,0,560,72.56a31.47,31.47,0,0,0,8.83-7.81l19.07,17A44.91,44.91,0,0,1,571,95.09,55.69,55.69,0,0,1,547.71,99.7Zm48.92-2V8.05h43.13q12.54,0,21.63,4.09A31.86,31.86,0,0,1,675.6,23.92a31.73,31.73,0,0,1,5,17.92,31.73,31.73,0,0,1-5,17.92,31.64,31.64,0,0,1-14.21,11.39q-9.09,4-21.63,4H613.39L626.83,62.7v35Zm53.63,0L628.24,65h32l22.27,32.64ZM626.83,66,613.39,52.34h24.45q6.27,0,9.22-2.82a9.9,9.9,0,0,0,3.07-7.68,9.9,9.9,0,0,0-3.07-7.68q-3-2.82-9.22-2.82H613.39l13.44-13.69Zm92.82-24.7h39.93V63.09H719.65Zm2.05,33.53h44.8V97.65H692V8.05h72.83V30.83H721.7Zm94.8,22.79V8.05h24.83l35.84,58.49h-13L898.93,8.05h24.83l.26,89.6H896.5l-.26-48.13h4.36L876.79,89.58H863.48L838.64,49.52H844V97.65Zm112.4,0,39.17-89.6h29.69l39.17,89.6H1005.7L976.77,22.38h11.78L959.62,97.65ZM952.19,82l7.68-21.76h41.22L1008.77,82Zm123,17.67a91.86,91.86,0,0,1-21.76-2.56,62.22,62.22,0,0,1-17.28-6.66l9.73-22a64.62,64.62,0,0,0,14.21,6,58,58,0,0,0,15.36,2.18,33.92,33.92,0,0,0,6.78-.52,8.86,8.86,0,0,0,3.72-1.66,3.71,3.71,0,0,0,1.15-2.69q0-2.43-2.69-3.84a27.22,27.22,0,0,0-7.17-2.3c-2.9-.68-6.1-1.37-9.6-2.05A105.62,105.62,0,0,1,1057,60.66a43.24,43.24,0,0,1-9.73-4.74,22.51,22.51,0,0,1-7-7.68,24.6,24.6,0,0,1-2.69-12,26.33,26.33,0,0,1,4.61-15.11q4.74-6.9,13.95-11T1079.25,6a84.12,84.12,0,0,1,17.92,1.92A56.4,56.4,0,0,1,1113,13.81L1104,35.7a67.8,67.8,0,0,0-12.92-5A45.93,45.93,0,0,0,1079,29a25,25,0,0,0-6.91.77,8,8,0,0,0-3.71,2.05,4.4,4.4,0,0,0-1,2.81q0,2.31,2.68,3.71a31.35,31.35,0,0,0,7,2.18q4.48.9,9.73,1.92a76.79,76.79,0,0,1,10.63,2.82A40.48,40.48,0,0,1,1107,50a22.08,22.08,0,0,1,7.16,7.68,23.49,23.49,0,0,1,2.69,11.78,26.21,26.21,0,0,1-4.73,15.1q-4.62,6.78-13.83,11T1075.15,99.7Zm97.7,0a58,58,0,0,1-20.23-3.46,48.3,48.3,0,0,1-16-9.73,46.53,46.53,0,0,1-10.62-15,46.47,46.47,0,0,1-3.71-18.69A45.86,45.86,0,0,1,1126,34.16a45.08,45.08,0,0,1,10.62-14.85,47.29,47.29,0,0,1,16-9.85A57.73,57.73,0,0,1,1172.85,6a57,57,0,0,1,20.22,3.46,47.09,47.09,0,0,1,16,9.85,43.64,43.64,0,0,1,10.5,14.85,44.63,44.63,0,0,1,3.84,18.69,46,46,0,0,1-14.34,33.66,48.09,48.09,0,0,1-16,9.73A57.22,57.22,0,0,1,1172.85,99.7Zm29.31,20.6a49.93,49.93,0,0,1-11.65-1.28,38.35,38.35,0,0,1-10.49-4,59.36,59.36,0,0,1-10.5-7.81q-5.51-4.86-12.29-12.16l31.23-7.68a72.3,72.3,0,0,0,5.25,7.29,14,14,0,0,0,4.23,3.59,11.31,11.31,0,0,0,4.86,1q6.66,0,12.42-5.76l13,15.36Q1218.67,120.31,1202.16,120.3Zm-29.31-45a19.54,19.54,0,0,0,7.81-1.54,18.55,18.55,0,0,0,6.4-4.35,20.6,20.6,0,0,0,4.35-7,27.67,27.67,0,0,0,1.53-9.47,26.61,26.61,0,0,0-1.53-9.35,19.18,19.18,0,0,0-4.35-7,18,18,0,0,0-6.4-4.48,19.71,19.71,0,0,0-7.81-1.53,20.64,20.64,0,0,0-7.94,1.53,19.49,19.49,0,0,0-6.4,4.48,19.91,19.91,0,0,0-4.22,7,26.38,26.38,0,0,0-1.54,9.35,27.42,27.42,0,0,0,1.54,9.47,21.45,21.45,0,0,0,4.22,7,20.19,20.19,0,0,0,6.4,4.35A20.47,20.47,0,0,0,1172.85,75.25Zm104.4,24.45q-20.61,0-32.13-11.14T1233.6,57.33V8.05h30.21V56.43q0,10.24,3.71,14.59a12.64,12.64,0,0,0,10,4.23q6.39,0,10-4.23t3.71-14.59V8.05h29.7V57.33q0,20.1-11.52,31.23T1277.25,99.7Zm85.14-58.37h39.94V63.09h-39.94Zm2,33.53h44.8V97.65h-74.49V8.05h72.83V30.83h-43.14Zm56.43,22.79V8.05H1464q12.54,0,21.63,4.09a31.92,31.92,0,0,1,14.21,11.78,31.73,31.73,0,0,1,5,17.92,31.73,31.73,0,0,1-5,17.92,31.69,31.69,0,0,1-14.21,11.39q-9.09,4-21.63,4h-26.37l13.44-12.42v35Zm53.63,0-22-32.64h32l22.27,32.64ZM1451.08,66l-13.44-13.69h24.45q6.27,0,9.21-2.82a9.91,9.91,0,0,0,3.08-7.68,9.91,9.91,0,0,0-3.08-7.68q-2.94-2.82-9.21-2.82h-24.45l13.44-13.69Zm55.44,31.62,39.17-89.6h29.69l39.17,89.6h-31.23l-28.93-75.27h11.78l-28.93,75.27ZM1529.81,82l7.68-21.76h41.22L1586.39,82Zm89.56,15.62V8.05h44.16q15,0,26.37,5.5a41.88,41.88,0,0,1,17.79,15.36q6.4,10,6.4,23.81t-6.4,24.06a42.64,42.64,0,0,1-17.79,15.49q-11.4,5.39-26.37,5.38Zm30.21-23.55h12.67a24,24,0,0,0,11.14-2.44,17.52,17.52,0,0,0,7.55-7.16,24.07,24.07,0,0,0,2.69-11.78,23,23,0,0,0-2.69-11.52,17.48,17.48,0,0,0-7.55-7.17,24.11,24.11,0,0,0-11.14-2.43h-12.67Zm103.19-32.77h39.94V63.09h-39.94Zm2,33.53h44.8V97.65h-74.5V8.05H1798V30.83h-43.13Z"/><g class="cls-3"><path class="cls-4" d="M6,97.65H0v6H6ZM6,8.05v-6H0v6Zm24.83,0L36,4.91,34.19,2.05H30.83ZM66.67,66.54v6H77.38l-5.59-9.13Zm-13.05,0-5.16-3.06-5.4,9.06H53.62ZM88.43,8.05v-6H85L83.28,5Zm24.83,0,6,0v-6h-6Zm.26,89.6v6h6l0-6ZM86,97.65l-6,0,0,6h6Zm-.26-48.13v-6h-6l0,6Zm4.36,0,5.15,3.07,5.39-9.07H90.1ZM66.29,89.58v6H69.7l1.75-2.93ZM53,89.58l-5.1,3.16,1.76,2.84H53ZM28.14,49.52v-6H17.37L23,52.68Zm5.38,0h6v-6h-6Zm0,48.13v6h6v-6ZM12,97.65V8.05H0v89.6ZM6,14.05H30.83v-12H6Zm19.72-2.87,35.84,58.5,10.23-6.27L36,4.91Zm41,49.36H53.62v12H66.67Zm-7.9,9.07L93.59,11.12,83.28,5,48.46,63.48ZM88.43,14.05h24.83v-12H88.43Zm18.83-6,.26,89.6,12,0L119.26,8Zm6.26,83.58H86v12h27.52ZM92,97.62l-.26-48.13-12,.06L80,97.68Zm-6.26-42.1H90.1v-12H85.74Zm-.8-9.07L61.13,86.52l10.32,6.13,23.8-40.06ZM66.29,83.58H53v12H66.29Zm-8.21,2.84L33.24,46.36,23,52.68,47.88,92.74ZM28.14,55.52h5.38v-12H28.14Zm-.62-6V97.65h12V49.52Zm6,42.13H6v12H33.52Zm84.88,6-5.5-2.41-3.67,8.41h9.17Zm39.16-89.6v-6h-3.92l-1.57,3.59Zm29.7,0,5.5-2.41-1.57-3.59h-3.93Zm39.17,89.6v6h9.17l-3.67-8.41Zm-31.23,0-5.6,2.15,1.48,3.85h4.12ZM166.27,22.38v-6h-8.74l3.14,8.16Zm11.78,0,5.6,2.16,3.13-8.16h-8.73ZM149.12,97.65v6h4.12l1.48-3.85ZM141.69,82,136,80l-2.82,8h8.48Zm7.68-21.76v-6h-4.24l-1.41,4Zm41.22,0,5.66-2-1.42-4h-4.24ZM198.27,82v6h8.48l-2.82-8Zm-74.37,18,39.16-89.6-11-4.81L112.9,95.24Zm33.66-86h29.7v-12h-29.7Zm24.2-3.6,39.17,89.6,11-4.81L192.76,5.64Zm44.67,81.2H195.2v12h31.23ZM200.8,95.5,171.87,20.23l-11.2,4.31L189.6,99.8ZM166.27,28.38h11.78v-12H166.27Zm6.17-8.15L143.52,95.5l11.2,4.3,28.93-75.26ZM149.12,91.65H118.4v12h30.72ZM147.35,84,155,62.27l-11.31-4L136,80Zm2-17.76h41.22v-12H149.37Zm35.56-4L192.61,84l11.32-4-7.68-21.76ZM198.27,76H141.69V88h56.58ZM242.9,97.14l1.42-5.83Zm-17.28-6.66-5.49-2.43L218,92.89l4.52,2.73Zm9.73-22,3-5.19-5.8-3.36L229.86,66Zm14.2,6-1.69,5.75,0,0,.06,0Zm22.15,1.66L272.93,82l.11,0,.11,0Zm3.71-1.66,4,4.48.13-.11.12-.13ZM273.87,68l-2.78,5.32h0Zm-7.16-2.3-1.38,5.84.1,0,.1,0Zm-9.6-2.05-1.29,5.86.07,0H256Zm-10.63-2.94-1.94,5.67h0Zm-9.73-4.74-3.36,5,0,0,0,0Zm-7-7.68-5.25,2.9,0,0,0,0Zm1.92-27.14-4.95-3.39h0Zm14-11-2.41-5.5h0Zm41.08-2.18-1.27,5.86h0Zm15.88,5.89,5.54,2.3,2-4.92-4.64-2.61ZM293.46,35.7l-2.68,5.36,5.75,2.88L299,38Zm-12.93-5L279,36.5h0Zm-18.94-.89-1.73-5.75h0Zm-3.72,2.05-4.46-4-.11.13-.11.14Zm1.67,6.52-2.79,5.32.11,0,.1,0Zm7,2.18-1.21,5.88h0Zm9.73,1.92-1.15,5.89h0Zm10.62,2.82L285,51h0Zm9.6,4.73-3.36,5,0,0,0,0Zm7.17,7.68-5.22,3h0Zm-2.05,26.88L296.7,81.2h0Zm-13.82,11,2.43,5.48h0l0,0Zm-23.17-1.9a85.43,85.43,0,0,1-20.34-2.39L241.48,103a97.72,97.72,0,0,0,23.18,2.73Zm-20.34-2.39a55.89,55.89,0,0,1-15.6-6l-6.2,10.28a68.19,68.19,0,0,0,19,7.35Zm-13.21,1.6,9.72-22-11-4.85-9.73,22Zm1.23-19.26a69.94,69.94,0,0,0,15.52,6.58l3.39-11.5a58.53,58.53,0,0,1-12.89-5.46ZM248,80.27a64.23,64.23,0,0,0,16.94,2.39v-12a51.77,51.77,0,0,1-13.77-2Zm16.94,2.39a40.94,40.94,0,0,0,8-.64l-2.47-11.75a28.74,28.74,0,0,1-5.55.39Zm8.24-.7a14.52,14.52,0,0,0,6.25-3l-8-9c.2-.18.26-.17,0-.07a7.1,7.1,0,0,1-1.21.39Zm6.5-3.24a9.65,9.65,0,0,0,2.91-6.93h-12a2.43,2.43,0,0,1,.2-.92,1.86,1.86,0,0,1,.41-.63Zm2.91-6.93a10.22,10.22,0,0,0-5.9-9.15l-5.57,10.63c.29.15.12.13-.12-.21a2.62,2.62,0,0,1-.31-.65,2,2,0,0,1-.1-.62Zm-5.9-9.15a33.16,33.16,0,0,0-8.78-2.88l-2.35,11.77a21.46,21.46,0,0,1,5.56,1.74Zm-8.58-2.83c-3-.71-6.27-1.4-9.83-2.1L256,69.49c3.43.67,6.56,1.34,9.37,2Zm-9.69-2.07a95.92,95.92,0,0,1-10-2.78l-3.8,11.39a111.16,111.16,0,0,0,11.24,3.11Zm-10-2.76a37.12,37.12,0,0,1-8.37-4.07l-6.59,10a48.63,48.63,0,0,0,11.08,5.4Zm-8.3-4a16.6,16.6,0,0,1-5.19-5.67L224.5,51.2a28.6,28.6,0,0,0,8.89,9.69ZM235,45.34A18.7,18.7,0,0,1,233,36.21H221a30.56,30.56,0,0,0,3.43,14.93ZM233,36.21a20.25,20.25,0,0,1,3.57-11.73l-9.93-6.75A32.29,32.29,0,0,0,221,36.21Zm3.55-11.71C239,21,242.69,18,248,15.58l-4.87-11c-7,3.09-12.56,7.41-16.47,13.1ZM248,15.59c5.25-2.3,12.09-3.59,20.75-3.59V0C259,0,250.38,1.44,243.18,4.6ZM268.75,12a78,78,0,0,1,16.65,1.78L288,2.06A90.24,90.24,0,0,0,268.75,0Zm16.65,1.78A50.93,50.93,0,0,1,299.6,19l5.89-10.45A62.59,62.59,0,0,0,288,2.06ZM297,11.51,287.92,33.4,299,38l9.09-21.89Zm-.86,18.82a73.77,73.77,0,0,0-14.07-5.43L279,36.5a62.43,62.43,0,0,1,11.79,4.56Zm-14-5.42A52.24,52.24,0,0,0,268.5,23V35A39.57,39.57,0,0,1,279,36.5ZM268.5,23a30.77,30.77,0,0,0-8.64,1l3.45,11.49A19.56,19.56,0,0,1,268.5,35Zm-8.64,1a13.94,13.94,0,0,0-6.45,3.78l8.92,8c-.15.17-.22.18-.05.09a5.46,5.46,0,0,1,1-.41Zm-6.67,4.05a10.41,10.41,0,0,0-2.34,6.56h12a1.6,1.6,0,0,1-.11.58,1.11,1.11,0,0,1-.18.35Zm-2.34,6.56c0,4.49,2.87,7.44,5.9,9l5.57-10.63c-.33-.17-.18-.17.06.16a2.48,2.48,0,0,1,.47,1.44ZM257,43.8a37.32,37.32,0,0,0,8.41,2.64l2.42-11.76A25.6,25.6,0,0,1,262.12,33Zm8.44,2.64,9.76,1.93,2.3-11.78-9.71-1.91Zm9.78,1.93A72.4,72.4,0,0,1,285,51l3.88-11.35a82.45,82.45,0,0,0-11.44-3ZM285,51a34.63,34.63,0,0,1,8.18,4l6.72-9.94a46.18,46.18,0,0,0-11-5.44Zm8.25,4.08a16.17,16.17,0,0,1,5.24,5.62l10.44-5.92A28.17,28.17,0,0,0,299.83,45Zm5.24,5.62a17.71,17.71,0,0,1,1.91,8.82h12a29.55,29.55,0,0,0-3.47-14.74Zm1.91,8.82A20.16,20.16,0,0,1,296.7,81.2L306.6,88a32.11,32.11,0,0,0,5.79-18.49Zm-3.7,11.73c-2.33,3.43-6,6.46-11.36,8.93l5,10.9c6.9-3.16,12.47-7.47,16.28-13.09Zm-11.3,8.9c-5.14,2.28-12,3.58-20.73,3.58v12c9.84,0,18.46-1.44,25.6-4.62Zm41.63,7,1.42-5.83Zm-17.28-6.66-5.49-2.43-2.13,4.84,4.52,2.73Zm9.73-22,3-5.19-5.79-3.36L314,66Zm14.21,6L332,80.23l.06,0,0,0Zm22.14,1.66L357.06,82l.11,0,.11,0Zm3.71-1.66,4,4.48.13-.11.13-.13ZM358,68l-2.79,5.32h0Zm-7.17-2.3-1.37,5.84.1,0,.09,0Zm-9.6-2.05-1.29,5.86.07,0h.07Zm-10.62-2.94-1.94,5.67h0Zm-9.73-4.74-3.36,5,0,0,0,0Zm-7-7.68-5.25,2.9v0l0,0Zm1.92-27.14-4.95-3.39h0Zm13.95-11L327.3,4.6h0ZM370.8,7.92l-1.28,5.86h0Zm15.87,5.89,5.54,2.3,2-4.92-4.63-2.61ZM377.58,35.7l-2.68,5.36,5.76,2.88L383.12,38Zm-12.93-5-1.56,5.8h0Zm-18.94-.89L344,24.06h0ZM342,31.86l-4.46-4-.12.13-.11.14Zm1.66,6.52-2.78,5.32.1,0,.1,0Zm7,2.18-1.21,5.88h0Zm9.73,1.92-1.15,5.89h0Zm10.63,2.82L369.12,51h0ZM380.65,50l-3.36,5,0,0,0,0Zm7.17,7.68-5.21,3h0Zm-2,26.88-4.95-3.39h0ZM372,95.6l2.44,5.48h0l0,0Zm-23.17-1.9a85.49,85.49,0,0,1-20.34-2.39L325.6,103a97.72,97.72,0,0,0,23.18,2.73Zm-20.34-2.39a55.89,55.89,0,0,1-15.6-6l-6.2,10.28a68.31,68.31,0,0,0,19,7.35Zm-13.21,1.6,9.73-22L314,66l-9.73,22Zm1.23-19.26A70.15,70.15,0,0,0,332,80.23l3.4-11.5a58.82,58.82,0,0,1-12.9-5.46Zm15.63,6.62a64.3,64.3,0,0,0,17,2.39v-12a51.71,51.71,0,0,1-13.77-2Zm17,2.39a40.94,40.94,0,0,0,8-.64l-2.47-11.75a28.9,28.9,0,0,1-5.55.39Zm8.24-.7a14.54,14.54,0,0,0,6.24-3l-8-9c.19-.18.25-.17,0-.07a7.44,7.44,0,0,1-1.21.39Zm6.5-3.24a9.69,9.69,0,0,0,2.91-6.93h-12a2.4,2.4,0,0,1,.19-.92,2.23,2.23,0,0,1,.41-.63Zm2.91-6.93a10.23,10.23,0,0,0-5.91-9.15l-5.57,10.63c.29.15.13.13-.11-.21a2.31,2.31,0,0,1-.31-.65,2,2,0,0,1-.1-.62Zm-5.91-9.15A33.09,33.09,0,0,0,352,59.76l-2.36,11.77a21.33,21.33,0,0,1,5.56,1.74Zm-8.57-2.83c-3-.71-6.27-1.4-9.83-2.1l-2.3,11.78c3.44.67,6.56,1.34,9.38,2Zm-9.69-2.07a96.77,96.77,0,0,1-10-2.78l-3.79,11.39a111,111,0,0,0,11.23,3.11Zm-10-2.76a37.19,37.19,0,0,1-8.38-4.07l-6.59,10a48.9,48.9,0,0,0,11.09,5.4Zm-8.31-4a16.58,16.58,0,0,1-5.18-5.67L308.62,51.2a28.53,28.53,0,0,0,8.9,9.69Zm-5.15-5.61a18.7,18.7,0,0,1-1.94-9.13h-12a30.46,30.46,0,0,0,3.44,14.93Zm-1.94-9.13a20.32,20.32,0,0,1,3.57-11.73l-9.92-6.75a32.3,32.3,0,0,0-5.65,18.48Zm3.56-11.71c2.41-3.53,6.1-6.55,11.44-8.92l-4.88-11c-6.95,3.09-12.56,7.41-16.46,13.1Zm11.41-8.91c5.25-2.3,12.09-3.59,20.76-3.59V0c-9.77,0-18.37,1.44-25.58,4.6ZM352.88,12a77.93,77.93,0,0,1,16.64,1.78l2.55-11.72A90.14,90.14,0,0,0,352.88,0Zm16.64,1.78A50.81,50.81,0,0,1,383.72,19l5.9-10.45a62.65,62.65,0,0,0-17.55-6.52Zm11.61-2.27L372,33.4,383.12,38l9.09-21.89Zm-.86,18.82a73.86,73.86,0,0,0-14.08-5.43l-3.07,11.6a62.1,62.1,0,0,1,11.78,4.56Zm-14-5.42A52.12,52.12,0,0,0,352.62,23V35a39.64,39.64,0,0,1,10.47,1.46ZM352.62,23a30.69,30.69,0,0,0-8.63,1l3.44,11.49a19.62,19.62,0,0,1,5.19-.51Zm-8.63,1a13.89,13.89,0,0,0-6.45,3.78l8.92,8c-.15.17-.22.18-.06.09a6.15,6.15,0,0,1,1-.41Zm-6.68,4.05A10.41,10.41,0,0,0,335,34.67h12a1.81,1.81,0,0,1-.1.58,1,1,0,0,1-.19.35ZM335,34.67c0,4.49,2.87,7.44,5.91,9l5.57-10.63c-.33-.17-.19-.17.06.16a2.77,2.77,0,0,1,.34.69,2.47,2.47,0,0,1,.12.75Zm6.11,9.13a37.65,37.65,0,0,0,8.41,2.64l2.42-11.76A25.77,25.77,0,0,1,346.24,33Zm8.45,2.64,9.75,1.93,2.3-11.78-9.7-1.91Zm9.78,1.93a73.18,73.18,0,0,1,9.81,2.6L373,39.62a82.08,82.08,0,0,0-11.44-3Zm9.81,2.6a34.37,34.37,0,0,1,8.17,4L384,45.06a46.25,46.25,0,0,0-11-5.44Zm8.24,4.08a16.19,16.19,0,0,1,5.25,5.62L393,54.75A28.07,28.07,0,0,0,384,45Zm5.25,5.62a17.72,17.72,0,0,1,1.9,8.82h12A29.55,29.55,0,0,0,393,54.75Zm1.9,8.82a20.23,20.23,0,0,1-3.68,11.71L390.72,88a32.11,32.11,0,0,0,5.79-18.49Zm-3.7,11.73c-2.32,3.43-6,6.46-11.36,8.93l5,10.9c6.91-3.16,12.47-7.47,16.29-13.09Zm-11.3,8.9c-5.14,2.28-12,3.58-20.73,3.58v12c9.84,0,18.46-1.44,25.61-4.62Zm20.26,7.53-5.5-2.41-3.67,8.41h9.17Zm39.17-89.6v-6H425l-1.58,3.59Zm29.7,0,5.49-2.41-1.57-3.59h-3.92Zm39.16,89.6v6H507l-3.67-8.41Zm-31.23,0L461,99.8l1.48,3.85h4.12ZM437.64,22.38v-6h-8.73L432,24.54Zm11.78,0,5.6,2.16,3.13-8.16h-8.73ZM420.49,97.65v6h4.12l1.48-3.85ZM413.07,82l-5.66-2-2.82,8h8.48Zm7.68-21.76v-6H416.5l-1.41,4Zm41.21,0,5.66-2-1.41-4H462ZM469.64,82v6h8.48l-2.82-8Zm-74.37,18,39.17-89.6-11-4.81-39.17,89.6Zm33.67-86h29.7v-12h-29.7Zm24.2-3.6,39.17,89.6,11-4.81L464.13,5.64Zm44.66,81.2H466.57v12H497.8ZM472.17,95.5,443.24,20.23,432,24.54,461,99.8ZM437.64,28.38h11.78v-12H437.64Zm6.18-8.15L414.89,95.5l11.2,4.3L455,24.54ZM420.49,91.65H389.77v12h30.72ZM418.73,84l7.68-21.76-11.32-4L407.41,80Zm2-17.76H462v-12H420.75Zm35.56-4L464,84l11.31-4-7.68-21.76ZM469.64,76H413.07V88h56.57Zm58.1,20.34L525.61,102h0l0,0Zm-15.87-9.73L507.76,91l0,0,0,0ZM501.5,71.79,496,74.18h0Zm0-37.89L496,31.52h0Zm10.37-14.84-4.07-4.41,0,0,0,0Zm15.87-9.6,2.07,5.63h0ZM571,10.61l-2.49,5.46h0ZM587.9,23.92l4,4.48,4.15-3.71-3.38-4.41Zm-19.07,17-4.7,3.74,4,5,4.74-4.23ZM560,33.26l-3.07,5.16.08,0,.09.05ZM540.67,32l2.23,5.57h0ZM534,36.46l-4.33-4.14,0,0,0,.05Zm-4.22,7.17,5.62,2.11v-.06Zm0,18.56-5.64,2v.06Zm4.22,7-4.43,4,0,0,0,0Zm6.66,4.48-2.23,5.57h0ZM560,72.56l3,5.22h0l0,0Zm8.83-7.81,4-4.47-4.74-4.23-4,5Zm19.07,17,4.74,3.67L596.08,81,591.9,77.3ZM571,95.09l2.49,5.46h0Zm-23.3-1.39a52.16,52.16,0,0,1-17.93-3L525.7,102a64.33,64.33,0,0,0,22,3.69Zm-17.83-2.94a42.51,42.51,0,0,1-13.94-8.53l-8.14,8.82A54.54,54.54,0,0,0,525.61,102ZM516,82.27a38.48,38.48,0,0,1-9-12.86l-11,4.77A50.45,50.45,0,0,0,507.76,91Zm-9-12.86a41.14,41.14,0,0,1-3.22-16.56h-12A53.11,53.11,0,0,0,496,74.18Zm-3.22-16.56A41.11,41.11,0,0,1,507,36.29l-11-4.77a53.11,53.11,0,0,0-4.21,21.33ZM507,36.29a38.42,38.42,0,0,1,9-12.87l-8.23-8.73A50.25,50.25,0,0,0,496,31.52Zm8.93-12.83a40.89,40.89,0,0,1,13.87-8.37L525.68,3.82A52.86,52.86,0,0,0,507.8,14.65Zm13.91-8.39A50.42,50.42,0,0,1,547.71,12V0a62.34,62.34,0,0,0-22.07,3.84ZM547.71,12a49.63,49.63,0,0,1,20.81,4.07l5-10.92A61.63,61.63,0,0,0,547.71,0Zm20.84,4.08a37.24,37.24,0,0,1,14.59,11.48l9.53-7.28a49.21,49.21,0,0,0-19.2-15.14Zm15.36,3.36-19.07,17,8,9,19.07-17ZM573.53,37.21A35.74,35.74,0,0,0,562.9,28l-5.8,10.51a23.59,23.59,0,0,1,7,6.16Zm-10.46-9.1a26.62,26.62,0,0,0-13.82-3.66v12a14.67,14.67,0,0,1,7.68,2Zm-13.82-3.66a29.06,29.06,0,0,0-10.81,2l4.46,11.14a17,17,0,0,1,6.35-1.1Zm-10.81,2a24.69,24.69,0,0,0-8.76,5.91l8.67,8.29a12.91,12.91,0,0,1,4.55-3.06Zm-8.86,6a27.32,27.32,0,0,0-5.43,9.16l11.28,4.1a15.25,15.25,0,0,1,3-5.17Zm-5.41,9.11a32.16,32.16,0,0,0-1.91,11.32h12a20.16,20.16,0,0,1,1.15-7.11Zm-1.91,11.32a33.25,33.25,0,0,0,1.89,11.39l11.28-4.1a21.26,21.26,0,0,1-1.17-7.29Zm1.91,11.45a27.63,27.63,0,0,0,5.41,9l8.87-8.09a15.56,15.56,0,0,1-3-5.1Zm5.51,9.08a24.66,24.66,0,0,0,8.76,5.9l4.46-11.14a12.65,12.65,0,0,1-4.55-3.06Zm8.76,5.9a28.86,28.86,0,0,0,10.81,2v-12a17,17,0,0,1-6.35-1.11Zm10.81,2A27.43,27.43,0,0,0,563,77.78L557,67.34a15.39,15.39,0,0,1-7.79,1.91ZM563,77.75a37.6,37.6,0,0,0,10.52-9.26L564.13,61A25.6,25.6,0,0,1,557,67.37Zm1.83-8.52,19.07,17,8-9-19.07-17Zm18.32,8.87a38.77,38.77,0,0,1-14.67,11.54l5,10.89a50.77,50.77,0,0,0,19.11-15.08ZM568.52,89.63a49.78,49.78,0,0,1-20.81,4.07v12a61.63,61.63,0,0,0,25.79-5.15Zm28.11,8h-6v6h6Zm0-89.6v-6h-6v6Zm64.76,4.09-2.46,5.47h0ZM675.6,23.92l-5,3.27v0l0,0Zm0,35.84,5,3.35v0l0,0ZM661.39,71.15,659,65.64h0Zm-48,4-4.07-4.41L598.06,81.12h15.33ZM626.83,62.7h6V49L622.76,58.3Zm0,35v6h6v-6Zm23.43,0-5,3.35,1.79,2.65h3.19ZM628.24,65V59H617l6.31,9.35Zm32,0,5-3.38L663.41,59h-3.17Zm22.27,32.64v6h11.36l-6.4-9.38ZM626.83,66l-4.28,4.2,10.28,10.48V66ZM613.39,52.34v-6H599.1l10,10.2Zm33.67-2.82L643,45.1l0,0-.05,0Zm0-15.36-4.15,4.34.05,0,0,0Zm-33.67-2.82-4.28-4.2-10,10.2h14.29Zm13.44-13.69h6V3L622.55,13.45Zm-24.2,80V8.05h-12v89.6Zm-6-83.6h43.13v-12H596.63Zm43.13,0c7.73,0,14.06,1.26,19.17,3.56l4.93-10.94c-7-3.15-15.1-4.62-24.1-4.62ZM659,17.63a25.89,25.89,0,0,1,11.61,9.56l10.06-6.54a37.85,37.85,0,0,0-16.8-14Zm11.64,9.6a25.83,25.83,0,0,1,4,14.61h12a37.79,37.79,0,0,0-6-21.23Zm4,14.61a25.83,25.83,0,0,1-4,14.61l10,6.62a37.79,37.79,0,0,0,6-21.23Zm-4,14.57A25.73,25.73,0,0,1,659,65.64l4.75,11a37.7,37.7,0,0,0,16.81-13.55ZM659,65.65c-5.13,2.24-11.48,3.47-19.23,3.47v12c9,0,17-1.42,24-4.47Zm-19.23,3.47H613.39v12h26.37Zm-22.3,10.41L630.9,67.11l-8.14-8.81L609.32,70.71Zm3.37-16.83v35h12V62.7Zm6,29h-30.2v12h30.2Zm28.4,2.64-22-32.64-9.94,6.71,22,32.64ZM628.24,71h32V59h-32Zm27-2.62L677.56,101l9.91-6.76L665.2,61.63Zm27.23,23.26H650.26v12h32.25ZM631.12,61.83l-13.44-13.7-8.57,8.41,13.44,13.69Zm-17.73-3.49h24.45v-12H613.39Zm24.45,0c4.92,0,9.81-1.09,13.36-4.48l-8.29-8.68c-.37.36-1.62,1.16-5.07,1.16Zm13.27-4.4a15.85,15.85,0,0,0,5-12.1h-12A4,4,0,0,1,643,45.1Zm5-12.1a15.85,15.85,0,0,0-5-12.1L643,38.58a4,4,0,0,1,1.13,3.26Zm-4.93-12c-3.55-3.39-8.44-4.48-13.36-4.48v12c3.45,0,4.7.8,5.07,1.16Zm-13.36-4.48H613.39v12h24.45ZM617.68,35.55l13.44-13.7-8.57-8.4L609.11,27.14Zm3.15-17.9V66h12V17.65Zm98.82,23.68v-6h-6v6Zm39.93,0h6v-6h-6Zm0,21.76v6h6v-6Zm-39.93,0h-6v6h6Zm2.05,11.77h-6v6h6Zm44.8,0h6v-6h-6Zm0,22.79v6h6v-6Zm-74.5,0h-6v6h6Zm0-89.6v-6h-6v6Zm72.83,0h6v-6h-6Zm0,22.78v6h6v-6Zm-43.13,0v-6h-6v6Zm-2.05,16.5h39.93v-12H719.65Zm33.93-6V63.09h12V41.33Zm6,15.76H719.65v12h39.93Zm-33.93,6V41.33h-12V63.09ZM721.7,80.86h44.8v-12H721.7Zm38.8-6V97.65h12V74.86Zm6,16.79H692v12h74.5Zm-68.5,6V8.05H686v89.6Zm-6-83.6h72.83v-12H692Zm66.83-6V30.83h12V8.05Zm6,16.78H721.7v12h43.13Zm-49.13,6v44h12v-44ZM816.5,97.65h-6v6h6Zm0-89.6v-6h-6v6Zm24.83,0,5.12-3.14-1.76-2.86h-3.36Zm35.84,58.49v6h10.72l-5.6-9.13Zm-13,0L859,63.48l-5.4,9.06h10.56ZM898.93,8.05v-6h-3.41L893.78,5Zm24.83,0,6,0v-6h-6Zm.26,89.6v6h6l0-6Zm-27.52,0-6,0,0,6h6Zm-.26-48.13v-6h-6l0,6Zm4.36,0,5.15,3.07,5.39-9.07H900.6ZM876.79,89.58v6h3.41L882,92.65Zm-13.31,0-5.1,3.16,1.76,2.84h3.34ZM838.64,49.52v-6H827.87l5.67,9.16Zm5.38,0h6v-6h-6Zm0,48.13v6h6v-6Zm-21.52,0V8.05h-12v89.6Zm-6-83.6h24.83v-12H816.5Zm19.72-2.87,35.84,58.5,10.23-6.27L846.45,4.91Zm40.95,49.36h-13v12h13Zm-7.9,9.07,34.82-58.49L893.78,5,859,63.48Zm29.66-55.56h24.83v-12H898.93Zm18.83-6,.26,89.6,12,0L929.76,8ZM924,91.65H896.5v12H924Zm-21.52,6-.26-48.13-12,.06.26,48.13Zm-6.26-42.1h4.36v-12h-4.36Zm-.8-9.07L871.63,86.52,882,92.65l23.8-40.06ZM876.79,83.58H863.48v12h13.31Zm-8.21,2.84L843.74,46.36l-10.2,6.32,24.84,40.06Zm-29.94-30.9H844v-12h-5.38Zm-.62-6V97.65h12V49.52Zm6,42.13H816.5v12H844Zm84.88,6-5.5-2.41-3.67,8.41h9.17Zm39.17-89.6v-6h-3.93l-1.57,3.59Zm29.69,0,5.5-2.41-1.57-3.59h-3.93Zm39.17,89.6v6h9.17l-3.68-8.41Zm-31.23,0-5.6,2.15,1.47,3.85h4.13ZM976.77,22.38v-6H968l3.14,8.16Zm11.78,0,5.6,2.16,3.13-8.16h-8.73ZM959.62,97.65v6h4.12l1.48-3.85ZM952.19,82l-5.66-2-2.82,8h8.48Zm7.68-21.76v-6h-4.24l-1.42,4Zm41.22,0,5.65-2-1.41-4h-4.24ZM1008.77,82v6h8.48l-2.83-8Zm-74.38,18,39.17-89.6-11-4.81L923.4,95.24Zm33.68-86h29.69v-12H968.07Zm24.19-3.6,39.17,89.6,11-4.81-39.16-89.6Zm44.67,81.2H1005.7v12h31.23Zm-25.64,3.85L982.37,20.23l-11.2,4.31L1000.1,99.8ZM976.77,28.38h11.78v-12H976.77Zm6.17-8.15L954,95.5l11.2,4.3,28.93-75.26ZM959.62,91.65H928.9v12h30.72ZM957.85,84l7.68-21.76-11.32-4L946.53,80Zm2-17.76h41.22v-12H959.87Zm35.56-4L1003.11,84l11.31-4-7.68-21.76ZM1008.77,76H952.19V88h56.58Zm44.62,21.11,1.43-5.83Zm-17.28-6.66-5.48-2.43-2.14,4.84,4.52,2.73Zm9.73-22,3-5.19-5.79-3.36L1040.35,66Zm14.21,6-1.7,5.75.06,0,0,0Zm22.14,1.66,1.24,5.88.11,0,.11,0Zm3.72-1.66,4,4.48.13-.11.13-.13ZM1084.37,68l-2.78,5.32h0Zm-7.17-2.3-1.37,5.84.1,0,.1,0Zm-9.6-2.05-1.28,5.86.06,0h.07ZM1057,60.66,1055,66.33h0Zm-9.73-4.74-3.36,5,0,0,0,0Zm-7-7.68-5.25,2.9,0,0v0Zm1.92-27.14-5-3.39h0Zm13.95-11-2.41-5.5h0Zm41.09-2.18-1.27,5.86h0ZM1113,13.81l5.54,2.3,2-4.92L1116,8.58ZM1104,35.7l-2.68,5.36,5.76,2.88L1109.5,38Zm-12.92-5-1.57,5.8h0Zm-19-.89-1.72-5.75h0Zm-3.71,2.05-4.46-4-.12.13-.11.14Zm1.66,6.52-2.78,5.32.1,0,.1,0Zm7,2.18-1.21,5.88h0Zm9.73,1.92-1.15,5.89h0Zm10.63,2.82L1095.49,51h0ZM1107,50l-3.37,5,0,0,0,0Zm7.16,7.68-5.21,3h0Zm-2,26.88-5-3.39h0Zm-13.83,11,2.44,5.48h0l0,0Zm-23.17-1.9a85.35,85.35,0,0,1-20.33-2.39L1052,103a97.78,97.78,0,0,0,23.18,2.73Zm-20.33-2.39a55.77,55.77,0,0,1-15.6-6L1033,95.62a68.31,68.31,0,0,0,19,7.35Zm-13.22,1.6,9.73-22-11-4.85-9.72,22Zm1.23-19.26a70.15,70.15,0,0,0,15.52,6.58l3.4-11.5a58.82,58.82,0,0,1-12.9-5.46Zm15.63,6.62a64.36,64.36,0,0,0,17,2.39v-12a51.77,51.77,0,0,1-13.77-2Zm17,2.39a40.94,40.94,0,0,0,8-.64L1081,70.27a28.74,28.74,0,0,1-5.55.39Zm8.24-.7a14.49,14.49,0,0,0,6.24-3l-8-9c.19-.18.26-.17,0-.07a7.44,7.44,0,0,1-1.21.39Zm6.5-3.24a9.65,9.65,0,0,0,2.91-6.93h-12a2.25,2.25,0,0,1,.2-.92,2.05,2.05,0,0,1,.4-.63Zm2.91-6.93a10.23,10.23,0,0,0-5.91-9.15l-5.56,10.63c.28.15.12.13-.12-.21a2.31,2.31,0,0,1-.31-.65,2,2,0,0,1-.1-.62Zm-5.91-9.15a33.09,33.09,0,0,0-8.77-2.88L1076,71.53a21.6,21.6,0,0,1,5.56,1.74Zm-8.57-2.83c-3-.71-6.27-1.4-9.83-2.1l-2.3,11.78c3.44.67,6.56,1.34,9.38,2Zm-9.69-2.07a95.92,95.92,0,0,1-10-2.78l-3.8,11.39a110.44,110.44,0,0,0,11.24,3.11Zm-10-2.76a37.12,37.12,0,0,1-8.37-4.07l-6.6,10a48.9,48.9,0,0,0,11.09,5.4Zm-8.31-4a16.58,16.58,0,0,1-5.18-5.67L1035,51.2a28.53,28.53,0,0,0,8.9,9.69Zm-5.15-5.61a18.7,18.7,0,0,1-1.94-9.13h-12A30.46,30.46,0,0,0,1035,51.14Zm-1.94-9.13a20.32,20.32,0,0,1,3.57-11.73l-9.92-6.75a32.3,32.3,0,0,0-5.65,18.48Zm3.56-11.71c2.41-3.53,6.1-6.55,11.44-8.92l-4.87-11c-7,3.09-12.57,7.41-16.47,13.1Zm11.41-8.91c5.25-2.3,12.1-3.59,20.76-3.59V0c-9.77,0-18.37,1.44-25.58,4.6ZM1079.25,12a78.09,78.09,0,0,1,16.65,1.78l2.54-11.72A90.14,90.14,0,0,0,1079.25,0Zm16.65,1.78A51,51,0,0,1,1110.1,19L1116,8.58a62.65,62.65,0,0,0-17.55-6.52Zm11.6-2.27-9.09,21.89L1109.5,38l9.08-21.89Zm-.86,18.82a73.86,73.86,0,0,0-14.08-5.43l-3.07,11.6a62.1,62.1,0,0,1,11.78,4.56Zm-14.05-5.42A52.12,52.12,0,0,0,1079,23V35a39.64,39.64,0,0,1,10.47,1.46ZM1079,23a30.69,30.69,0,0,0-8.63,1l3.45,11.49A19.47,19.47,0,0,1,1079,35Zm-8.63,1a13.89,13.89,0,0,0-6.45,3.78l8.92,8c-.15.17-.22.18-.06.09a6,6,0,0,1,1-.41Zm-6.68,4.05a10.4,10.4,0,0,0-2.33,6.56h12a1.6,1.6,0,0,1-.11.58,1.39,1.39,0,0,1-.18.35Zm-2.33,6.56c0,4.49,2.86,7.44,5.9,9l5.57-10.63c-.33-.17-.19-.17.06.16a2.47,2.47,0,0,1,.34.69,2.51,2.51,0,0,1,.13.75Zm6.1,9.13a37.65,37.65,0,0,0,8.41,2.64l2.42-11.76a25.77,25.77,0,0,1-5.67-1.71Zm8.45,2.64,9.75,1.93,2.3-11.78-9.7-1.91Zm9.78,1.93a73.18,73.18,0,0,1,9.81,2.6l3.87-11.35a82.08,82.08,0,0,0-11.44-3Zm9.81,2.6a34.37,34.37,0,0,1,8.17,4l6.73-9.94a46.25,46.25,0,0,0-11-5.44Zm8.24,4.08a16.1,16.1,0,0,1,5.25,5.62l10.43-5.92a28,28,0,0,0-9.09-9.73Zm5.25,5.62a17.72,17.72,0,0,1,1.9,8.82h12a29.44,29.44,0,0,0-3.47-14.74Zm1.9,8.82a20.15,20.15,0,0,1-3.68,11.71l9.9,6.78a32.18,32.18,0,0,0,5.78-18.49Zm-3.7,11.73c-2.32,3.43-6,6.46-11.36,8.93l5,10.9c6.91-3.16,12.47-7.47,16.29-13.09Zm-11.29,8.9c-5.15,2.28-12,3.58-20.74,3.58v12c9.84,0,18.46-1.44,25.61-4.62Zm56.73,6.12-2.1,5.62h0Zm-16-9.73-4.11,4.37,0,0,0,0Zm-10.62-15-5.51,2.38,0,0v0Zm0-37.38-5.48-2.45v0Zm10.62-14.85,4.08,4.41,0,0,0,0Zm16-9.85-2.08-5.63h0Zm40.45,0L1191,15.07h0Zm16,9.85L1205,23.68l0,0,0,0Zm10.5,14.85-5.51,2.38,0,.05,0,0Zm0,37.38-5.48-2.46v0l0,0Zm-10.5,15,4.07,4.41,0,0,0,0Zm-16,9.73L1191,90.62h0ZM1190.51,119l1.39-5.83-.07,0h-.06Zm-10.49-4-3,5.22,0,0h0Zm-10.5-7.81,4-4.45,0,0,0,0Zm-12.29-12.16-1.43-5.83-9.91,2.44,6.95,7.47Zm31.23-7.68,5-3.27-2.33-3.58-4.14,1Zm5.25,7.29-4.57,3.89h0Zm4.23,3.59-2.69,5.36.07,0,.06,0Zm17.28-4.74,4.57-3.88-4.22-5-4.6,4.6Zm13,15.36,4.59,3.87,3.27-3.88-3.29-3.87Zm-47.61-35.2-2.3-5.54h0l0,0Zm6.4-4.35-4.34-4.15h0Zm4.35-7,5.61,2.11,0,0v0Zm0-18.82-5.64,2v.06Zm-4.35-7-4.44,4,.1.1.09.1Zm-6.4-4.48-2.37,5.52h0l0,0Zm-15.75,0-2.29-5.54h0l0,0Zm-6.4,4.48-4.33-4.14h0Zm-4.22,7,5.61,2.11,0,0v0Zm0,18.82-5.64,2.05v.06Zm4.22,7-4.43,4,.09.1.1.09Zm6.4,4.35-2.36,5.52h0l0,0Zm7.94,20a51.83,51.83,0,0,1-18.15-3.09l-4.16,11.26a63.94,63.94,0,0,0,22.31,3.83Zm-18.12-3.08a42.2,42.2,0,0,1-14-8.51l-8.15,8.81a54.23,54.23,0,0,0,18,10.94Zm-14-8.47a40.35,40.35,0,0,1-9.26-13.07l-11,4.91a52.51,52.51,0,0,0,12,16.89Zm-9.23-13a40.39,40.39,0,0,1-3.22-16.3h-12a52.64,52.64,0,0,0,4.2,21.07Zm-3.22-16.3a40.11,40.11,0,0,1,3.2-16.28l-11-4.82a51.82,51.82,0,0,0-4.22,21.1Zm3.19-16.24a39,39,0,0,1,9.22-12.89l-8.15-8.81a51.05,51.05,0,0,0-12,16.8Zm9.26-12.93a41.15,41.15,0,0,1,14-8.61l-4.21-11.23a53,53,0,0,0-18,11.11Zm14-8.6A52.06,52.06,0,0,1,1172.85,12V0a63.94,63.94,0,0,0-22.31,3.83ZM1172.85,12A51.22,51.22,0,0,1,1191,15.07l4.22-11.23A63,63,0,0,0,1172.85,0ZM1191,15.07a41.15,41.15,0,0,1,14,8.61l8.24-8.73a53.12,53.12,0,0,0-18-11.11Zm14,8.65a37.61,37.61,0,0,1,9.06,12.82l11-4.76a49.32,49.32,0,0,0-11.93-16.87Zm9.1,12.92a38.54,38.54,0,0,1,3.31,16.21h12A50.6,50.6,0,0,0,1225,31.68Zm3.31,16.21a39.14,39.14,0,0,1-3.32,16.23L1225,74a51.23,51.23,0,0,0,4.37-21.14Zm-3.35,16.3a38.93,38.93,0,0,1-9.11,13l8.24,8.73a50.94,50.94,0,0,0,11.88-17Zm-9.06,13a42.25,42.25,0,0,1-14,8.51l4.22,11.24a54.29,54.29,0,0,0,18-10.94Zm-14,8.51a51,51,0,0,1-18.11,3.08v12a63.27,63.27,0,0,0,22.33-3.84Zm11.2,23.68a44.32,44.32,0,0,1-10.26-1.11l-2.78,11.67a56,56,0,0,0,13,1.44Zm-10.39-1.14a32.52,32.52,0,0,1-8.86-3.36l-5.79,10.51a44.62,44.62,0,0,0,12.13,4.58Zm-8.81-3.33a53.44,53.44,0,0,1-9.41-7l-8.06,8.89a65.13,65.13,0,0,0,11.58,8.59Zm-9.47-7.08q-5.22-4.6-11.86-11.75l-8.79,8.17q6.92,7.44,12.71,12.57Zm-14.83-1.84,31.24-7.68L1187,81.58l-31.23,7.68Zm24.77-10.24a79.52,79.52,0,0,0,5.71,7.92l9.14-7.77a65.61,65.61,0,0,1-4.78-6.68Zm5.71,7.92a20,20,0,0,0,6.11,5.06l5.37-10.73a8.4,8.4,0,0,1-2.34-2.1Zm6.24,5.13a17.29,17.29,0,0,0,7.42,1.59v-12a5.39,5.39,0,0,1-2.31-.45Zm7.42,1.59c6.37,0,12-2.82,16.66-7.52L1211,89.31c-3,3-5.67,4-8.17,4Zm7.84-7.87,13.06,15.36,9.14-7.77-13-15.36Zm13,7.61c-5.12,6.08-12.07,9.25-21.52,9.25v12c12.56,0,23-4.42,30.7-13.52Zm-50.83-23.8a25.61,25.61,0,0,0,10.17-2l-4.73-11a13.57,13.57,0,0,1-5.44,1Zm10.1-2a24.71,24.71,0,0,0,8.45-5.76l-8.69-8.28a12.55,12.55,0,0,1-4.35,3Zm8.44-5.75a26.29,26.29,0,0,0,5.63-9.08l-11.23-4.22a14.3,14.3,0,0,1-3.07,5Zm5.66-9.14a33.51,33.51,0,0,0,1.89-11.52h-12a21.59,21.59,0,0,1-1.17,7.42Zm1.89-11.52A32.24,32.24,0,0,0,1197,41.4l-11.23,4.21a20.49,20.49,0,0,1,1.15,7.24Zm-1.89-11.4a25,25,0,0,0-5.75-9.23l-8.49,8.49a13,13,0,0,1,3,4.84Zm-5.56-9a23.78,23.78,0,0,0-8.54-6l-4.59,11.09a11.65,11.65,0,0,1,4.26,3Zm-8.47-6a25.61,25.61,0,0,0-10.17-2v12a13.57,13.57,0,0,1,5.44,1Zm-10.17-2a26.52,26.52,0,0,0-10.23,2l4.59,11.09a14.5,14.5,0,0,1,5.64-1.08Zm-10.3,2a25.34,25.34,0,0,0-8.37,5.85l8.67,8.29a13.36,13.36,0,0,1,4.42-3.11Zm-8.38,5.85a25.75,25.75,0,0,0-5.52,9.13l11.28,4.1a13.8,13.8,0,0,1,2.92-4.94Zm-5.5,9.08a32.47,32.47,0,0,0-1.92,11.45h12a20.72,20.72,0,0,1,1.15-7.24Zm-1.92,11.45a33.52,33.52,0,0,0,1.9,11.52l11.28-4.1a21.58,21.58,0,0,1-1.18-7.42Zm1.92,11.58a27.56,27.56,0,0,0,5.41,9l8.86-8.1a15.52,15.52,0,0,1-3-5.1Zm5.6,9.17a26.1,26.1,0,0,0,8.28,5.63l4.72-11a14.36,14.36,0,0,1-4.52-3.08Zm8.35,5.66a26.52,26.52,0,0,0,10.23,2v-12a14.5,14.5,0,0,1-5.64-1.08Zm82.5,9.3L1241,92.87h0ZM1233.6,8.05v-6h-6v6Zm30.21,0h6v-6h-6Zm3.71,63-4.56,3.9,0,0,0,0Zm20,0-4.56-3.89h0Zm3.71-63v-6h-6v6Zm29.7,0h6v-6h-6Zm-11.52,80.51-4.17-4.31h0Zm-32.13,5.14c-12.65,0-21.69-3.4-28-9.45L1241,92.87c9.1,8.79,21.47,12.83,36.3,12.83Zm-28-9.45c-6.23-6-9.69-14.71-9.69-26.92h-12c0,14.58,4.22,26.72,13.35,35.54Zm-9.69-26.92V8.05h-12V57.33Zm-6-43.28h30.21v-12H1233.6Zm24.21-6V56.43h12V8.05Zm0,48.38c0,7.25,1.25,13.92,5.15,18.49l9.13-7.79c-1.06-1.24-2.28-4.29-2.28-10.7ZM1263,75a18.57,18.57,0,0,0,14.49,6.27v-12a6.68,6.68,0,0,1-5.48-2.19Zm14.49,6.27c5.72,0,10.84-2,14.56-6.34l-9.15-7.77c-1.07,1.26-2.6,2.11-5.41,2.11Zm14.55-6.33c3.89-4.57,5.14-11.24,5.14-18.49h-12c0,6.41-1.22,9.46-2.27,10.7Zm5.14-18.49V8.05h-12V56.43Zm-6-42.38h29.7v-12h-29.7Zm23.7-6V57.33h12V8.05Zm0,49.28c0,12.21-3.46,20.89-9.69,26.92l8.34,8.62c9.13-8.82,13.35-21,13.35-35.54Zm-9.69,26.92c-6.27,6-15.31,9.45-28,9.45v12c14.83,0,27.21-4,36.3-12.83Zm57.18-42.92v-6h-6v6Zm39.94,0h6v-6h-6Zm0,21.76v6h6v-6Zm-39.94,0h-6v6h6Zm2,11.77h-6v6h6Zm44.8,0h6v-6h-6Zm0,22.79v6h6v-6Zm-74.49,0h-6v6h6Zm0-89.6v-6h-6v6Zm72.83,0h6v-6h-6Zm0,22.78v6h6v-6Zm-43.14,0v-6h-6v6Zm-2,16.5h39.94v-12h-39.94Zm33.94-6V63.09h12V41.33Zm6,15.76h-39.94v12h39.94Zm-33.94,6V41.33h-12V63.09Zm-4,17.77h44.8v-12h-44.8Zm38.8-6V97.65h12V74.86Zm6,16.79h-74.49v12h74.49Zm-68.49,6V8.05h-12v89.6Zm-6-83.6h72.83v-12h-72.83Zm66.83-6V30.83h12V8.05Zm6,16.78h-43.14v12h43.14Zm-49.14,6v44h12v-44Zm62.43,66.82h-6v6h6Zm0-89.6v-6h-6v6Zm64.77,4.09-2.47,5.47h0Zm14.21,11.78-5,3.27v0Zm0,35.84,5,3.35v0Zm-14.21,11.39-2.37-5.51h0Zm-48,4-4.07-4.41L1422.3,81.12h15.34Zm13.44-12.42h6V49L1447,58.3Zm0,35v6h6v-6Zm23.42,0-5,3.35,1.78,2.65h3.19Zm-22-32.64V59H1441.2l6.31,9.35Zm32,0,5-3.38L1487.66,59h-3.17Zm22.27,32.64v6h11.36l-6.4-9.38ZM1451.08,66l-4.28,4.2,10.28,10.48V66Zm-13.44-13.69v-6h-14.3l10,10.2Zm33.66-2.82-4-4.42,0,0,0,0Zm0-15.36-4.14,4.34,0,0,0,0Zm-33.66-2.82-4.28-4.2-10,10.2h14.3Zm13.44-13.69h6V3L1446.8,13.45Zm-24.21,80V8.05h-12v89.6Zm-6-83.6H1464v-12h-43.14Zm43.14,0c7.72,0,14,1.26,19.16,3.56l4.93-10.94c-7-3.15-15.09-4.62-24.09-4.62Zm19.19,3.58a25.92,25.92,0,0,1,11.62,9.56l10.06-6.54a37.9,37.9,0,0,0-16.8-14Zm11.64,9.6a25.75,25.75,0,0,1,4,14.61h12a37.72,37.72,0,0,0-6-21.23Zm4,14.61a25.75,25.75,0,0,1-4,14.61l10,6.62a37.72,37.72,0,0,0,6-21.23Zm-4,14.57a25.79,25.79,0,0,1-11.6,9.23l4.74,11a37.67,37.67,0,0,0,16.82-13.55Zm-11.63,9.24c-5.13,2.24-11.49,3.47-19.23,3.47v12c9,0,17-1.42,24-4.47ZM1464,69.12h-26.37v12H1464Zm-22.3,10.41,13.44-12.42L1447,58.3l-13.44,12.41Zm3.37-16.83v35h12V62.7Zm6,29h-30.21v12h30.21Zm28.4,2.64-22-32.64-10,6.71,22,32.64Zm-27-23.28h32V59h-32Zm27-2.62L1501.8,101l9.92-6.76-22.28-32.64Zm27.23,23.26H1474.5v12h32.26Zm-51.4-29.82-13.44-13.7-8.56,8.41,13.44,13.69Zm-17.72-3.49h24.45v-12h-24.45Zm24.45,0c4.91,0,9.81-1.09,13.36-4.48l-8.29-8.68c-.38.36-1.63,1.16-5.07,1.16Zm13.27-4.4a15.85,15.85,0,0,0,5-12.1h-12a4,4,0,0,1-1.13,3.26Zm5-12.1a15.85,15.85,0,0,0-5-12.1l-8.11,8.84a4,4,0,0,1,1.13,3.26Zm-4.93-12c-3.55-3.39-8.45-4.48-13.36-4.48v12c3.44,0,4.69.8,5.07,1.16Zm-13.36-4.48h-24.45v12h24.45Zm-20.17,10.21,13.44-13.7-8.56-8.4-13.44,13.69Zm3.16-17.9V66h12V17.65Zm61.44,80-5.5-2.41-3.67,8.41h9.17Zm39.17-89.6v-6h-3.93l-1.57,3.59Zm29.69,0,5.5-2.41-1.57-3.59h-3.93Zm39.17,89.6v6h9.17l-3.67-8.41Zm-31.23,0-5.6,2.15,1.48,3.85h4.12Zm-28.93-75.27v-6h-8.73l3.13,8.16Zm11.78,0,5.6,2.16,3.13-8.16h-8.73Zm-28.93,75.27v6h4.12l1.48-3.85ZM1529.81,82l-5.65-2-2.83,8h8.48Zm7.68-21.76v-6h-4.24l-1.41,4Zm41.22,0,5.66-2-1.41-4h-4.25ZM1586.39,82v6h8.48l-2.82-8Zm-74.37,18,39.16-89.6-11-4.81L1501,95.24Zm33.67-86h29.69v-12h-29.69Zm24.19-3.6,39.17,89.6,11-4.81-39.17-89.6Zm44.67,81.2h-31.23v12h31.23Zm-25.63,3.85L1560,20.23l-11.2,4.31,28.93,75.26Zm-34.53-67.12h11.78v-12h-11.78Zm6.18-8.15L1531.64,95.5l11.2,4.3,28.93-75.26Zm-23.33,71.42h-30.72v12h30.72ZM1535.47,84l7.68-21.76-11.31-4L1524.16,80Zm2-17.76h41.22v-12h-41.22Zm35.56-4L1580.73,84l11.32-4-7.68-21.76ZM1586.39,76h-56.58V88h56.58Zm33,21.62h-6v6h6Zm0-89.6v-6h-6v6Zm70.53,5.5-2.61,5.4,0,0h0Zm17.79,15.36-5,3.24h0Zm0,47.87,5,3.24h0v0ZM1689.9,92.27l2.56,5.43h0l0,0ZM1649.58,74.1h-6v6h6Zm23.81-2.44-2.69-5.36h0l0,0Zm7.55-7.16,5.22,3v0l0,0Zm0-23.3,5.22-3h0ZM1673.39,34l-2.74,5.34h0l0,0Zm-23.81-2.43v-6h-6v6Zm-24.21,66.05V8.05h-12v89.6Zm-6-83.6h44.16v-12h-44.16Zm44.16,0c9.25,0,17.11,1.69,23.76,4.9l5.22-10.8c-8.55-4.13-18.26-6.1-29-6.1ZM1687.34,19a35.72,35.72,0,0,1,15.3,13.17l10.1-6.48a47.7,47.7,0,0,0-20.28-17.54Zm15.3,13.17c3.55,5.54,5.45,12.31,5.45,20.57h12c0-10.17-2.36-19.27-7.35-27Zm5.45,20.57c0,8.36-1.9,15.22-5.47,20.86L1712.76,80c5-7.85,7.33-17,7.33-27.27Zm-5.45,20.83a36.66,36.66,0,0,1-15.35,13.32l5.22,10.8A48.54,48.54,0,0,0,1712.74,80Zm-15.3,13.3c-6.66,3.14-14.55,4.8-23.81,4.8v12c10.71,0,20.4-1.93,28.93-6Zm-23.81,4.8h-44.16v12h44.16Zm-14-11.55h12.67v-12h-12.67Zm12.67,0a30,30,0,0,0,13.88-3.1l-5.48-10.67a18.23,18.23,0,0,1-8.4,1.77ZM1676.07,77a23.48,23.48,0,0,0,10.09-9.57l-10.44-5.93a11.45,11.45,0,0,1-5,4.77Zm10.12-9.63a30,30,0,0,0,3.44-14.68h-12a18.12,18.12,0,0,1-1.94,8.87Zm3.44-14.68a29,29,0,0,0-3.47-14.48l-10.44,5.92a17.06,17.06,0,0,1,1.91,8.56Zm-3.47-14.48a23.48,23.48,0,0,0-10.09-9.57L1670.7,39.4a11.49,11.49,0,0,1,5,4.76Zm-10-9.55a30.13,30.13,0,0,0-13.88-3.09v12a18.1,18.1,0,0,1,8.4,1.77Zm-13.88-3.09h-12.67v12h12.67Zm-18.67,6V74.1h12V31.6Zm109.19,9.73v-6h-6v6Zm39.94,0h6v-6h-6Zm0,21.76v6h6v-6Zm-39.94,0h-6v6h6Zm2,11.77h-6v6h6Zm44.8,0h6v-6h-6Zm0,22.79v6h6v-6Zm-74.5,0h-6v6h6Zm0-89.6v-6h-6v6Zm72.83,0h6v-6h-6Zm0,22.78v6h6v-6Zm-43.13,0v-6h-6v6Zm-2,16.5h39.94v-12h-39.94Zm33.94-6V63.09h12V41.33Zm6,15.76h-39.94v12h39.94Zm-33.94,6V41.33h-12V63.09Zm-4,17.77h44.8v-12h-44.8Zm38.8-6V97.65h12V74.86Zm6,16.79h-74.5v12h74.5Zm-68.5,6V8.05h-12v89.6Zm-6-83.6H1798v-12h-72.83Zm66.83-6V30.83h12V8.05Zm6,16.78h-43.13v12H1798Zm-49.13,6v44h12v-44Z"/></g></g></g></svg>