<svg xmlns="http://www.w3.org/2000/svg" xmlns:xlink="http://www.w3.org/1999/xlink" viewBox="0 0 1793.62 114.3"><defs><style>.cls-1{fill:url(#Безымянный_градиент_768);}</style><linearGradient id="Безымянный_градиент_768" x1="357.8" y1="1101.32" x2="357.8" y2="946.32" gradientTransform="matrix(1, 0, 0, -1, 539.01, 1068.97)" gradientUnits="userSpaceOnUse"><stop offset="0" stop-color="#34090b"/><stop offset="0.37" stop-color="#543435"/><stop offset="0.7" stop-color="#a75155"/><stop offset="1" stop-color="#a76869"/></linearGradient></defs><g id="Слой_2" data-name="Слой 2"><g id="Слой_1-2" data-name="Слой 1"><path class="cls-1" d="M0,91.65V2.05H24.83L60.67,60.54H47.62L82.43,2.05h24.83l.26,89.6H80l-.26-48.13H84.1L60.29,83.58H47L22.14,43.52h5.38V91.65Zm112.4,0,39.16-89.6h29.7l39.17,89.6H189.2L160.27,16.38h11.78L143.12,91.65ZM135.69,76l7.68-21.76h41.22L192.27,76Zm123,17.67a91.8,91.8,0,0,1-21.76-2.56,62,62,0,0,1-17.28-6.66l9.73-22a64.54,64.54,0,0,0,14.2,6,58.14,58.14,0,0,0,15.36,2.18,34,34,0,0,0,6.79-.52,8.87,8.87,0,0,0,3.71-1.66,3.67,3.67,0,0,0,1.15-2.69c0-1.62-.89-2.9-2.69-3.84a27.26,27.26,0,0,0-7.16-2.3c-2.9-.68-6.1-1.37-9.6-2a106.53,106.53,0,0,1-10.63-2.94,43.24,43.24,0,0,1-9.73-4.74,22.61,22.61,0,0,1-7-7.68,24.6,24.6,0,0,1-2.68-12,26.32,26.32,0,0,1,4.6-15.11q4.74-6.9,14-11T262.75,0a84.05,84.05,0,0,1,17.92,1.92,56.58,56.58,0,0,1,15.88,5.89L287.46,29.7a68.14,68.14,0,0,0-12.93-5,45.91,45.91,0,0,0-12-1.66,24.93,24.93,0,0,0-6.91.77,8,8,0,0,0-3.72,2.05,4.4,4.4,0,0,0-1,2.81q0,2.31,2.69,3.71a31.19,31.19,0,0,0,7,2.18c3,.6,6.23,1.24,9.73,1.92a77,77,0,0,1,10.62,2.82,40.11,40.11,0,0,1,9.6,4.73,22,22,0,0,1,7.17,7.68,23.6,23.6,0,0,1,2.69,11.78,26.15,26.15,0,0,1-4.74,15.1q-4.61,6.78-13.82,11T258.66,93.7Zm84.12,0A91.86,91.86,0,0,1,321,91.14a62.22,62.22,0,0,1-17.28-6.66l9.73-22a64.62,64.62,0,0,0,14.21,6A58,58,0,0,0,343,70.66a33.92,33.92,0,0,0,6.78-.52,8.75,8.75,0,0,0,3.71-1.66,3.68,3.68,0,0,0,1.16-2.69q0-2.43-2.69-3.84a27.22,27.22,0,0,0-7.17-2.3c-2.9-.68-6.1-1.37-9.6-2a105.62,105.62,0,0,1-10.62-2.94,43.24,43.24,0,0,1-9.73-4.74,22.51,22.51,0,0,1-7-7.68,24.6,24.6,0,0,1-2.69-12,26.33,26.33,0,0,1,4.61-15.11q4.74-6.9,13.95-11T346.88,0A84.12,84.12,0,0,1,364.8,1.92a56.4,56.4,0,0,1,15.87,5.89L371.58,29.7a67.62,67.62,0,0,0-12.93-5,45.8,45.8,0,0,0-12-1.66,25,25,0,0,0-6.91.77A7.91,7.91,0,0,0,336,25.86a4.41,4.41,0,0,0-1,2.81q0,2.31,2.69,3.71a31.35,31.35,0,0,0,7,2.18q4.49.9,9.73,1.92a76.79,76.79,0,0,1,10.63,2.82A40.23,40.23,0,0,1,374.65,44a22,22,0,0,1,7.17,7.68,23.49,23.49,0,0,1,2.69,11.78,26.21,26.21,0,0,1-4.73,15.1q-4.62,6.78-13.83,11T342.78,93.7Zm41-2,39.17-89.6h29.7l39.16,89.6H460.57L431.64,16.38h11.78L414.49,91.65ZM407.07,76l7.68-21.76H456L463.64,76ZM541.71,93.7a58.36,58.36,0,0,1-20-3.33,48.59,48.59,0,0,1-15.87-9.73A44.41,44.41,0,0,1,495.5,65.79a47.27,47.27,0,0,1-3.71-18.94,47.32,47.32,0,0,1,3.71-19,44.47,44.47,0,0,1,10.37-14.84,46.49,46.49,0,0,1,15.87-9.6,56.31,56.31,0,0,1,20-3.46A55.69,55.69,0,0,1,565,4.61,43.22,43.22,0,0,1,581.9,17.92l-19.07,17A29.88,29.88,0,0,0,554,27.26a20.7,20.7,0,0,0-10.75-2.81A23,23,0,0,0,534.67,26,18.87,18.87,0,0,0,528,30.46a21.53,21.53,0,0,0-4.22,7.17,26.18,26.18,0,0,0-1.53,9.22,27.23,27.23,0,0,0,1.53,9.34,21.62,21.62,0,0,0,4.22,7,18.74,18.74,0,0,0,6.66,4.48,22.8,22.8,0,0,0,8.58,1.54A21.42,21.42,0,0,0,554,66.56a31.47,31.47,0,0,0,8.83-7.81l19.07,17A44.91,44.91,0,0,1,565,89.09,55.69,55.69,0,0,1,541.71,93.7Zm48.92-2V2.05h43.13q12.54,0,21.63,4.09A31.86,31.86,0,0,1,669.6,17.92a31.73,31.73,0,0,1,5,17.92,31.73,31.73,0,0,1-5,17.92,31.64,31.64,0,0,1-14.21,11.39q-9.09,4-21.63,4H607.39L620.83,56.7v35Zm53.63,0L622.24,59h32l22.27,32.64ZM620.83,60,607.39,46.34h24.45q6.27,0,9.22-2.82a9.9,9.9,0,0,0,3.07-7.68,9.9,9.9,0,0,0-3.07-7.68q-3-2.82-9.22-2.82H607.39l13.44-13.69Zm92.82-24.7h39.93V57.09H713.65Zm2.05,33.53h44.8V91.65H686V2.05h72.83V24.83H715.7Zm94.8,22.79V2.05h24.83l35.84,58.49h-13L892.93,2.05h24.83l.26,89.6H890.5l-.26-48.13h4.36L870.79,83.58H857.48L832.64,43.52H838V91.65Zm112.4,0,39.17-89.6h29.69l39.17,89.6H999.7L970.77,16.38h11.78L953.62,91.65ZM946.19,76l7.68-21.76h41.22L1002.77,76Zm123,17.67a91.86,91.86,0,0,1-21.76-2.56,62.22,62.22,0,0,1-17.28-6.66l9.73-22a64.62,64.62,0,0,0,14.21,6,58,58,0,0,0,15.36,2.18,33.92,33.92,0,0,0,6.78-.52,8.86,8.86,0,0,0,3.72-1.66,3.71,3.71,0,0,0,1.15-2.69q0-2.43-2.69-3.84a27.22,27.22,0,0,0-7.17-2.3c-2.9-.68-6.1-1.37-9.6-2A105.62,105.62,0,0,1,1051,54.66a43.24,43.24,0,0,1-9.73-4.74,22.51,22.51,0,0,1-7-7.68,24.6,24.6,0,0,1-2.69-12,26.33,26.33,0,0,1,4.61-15.11q4.74-6.9,13.95-11T1073.25,0a84.12,84.12,0,0,1,17.92,1.92A56.4,56.4,0,0,1,1107,7.81L1098,29.7a67.8,67.8,0,0,0-12.92-5A45.93,45.93,0,0,0,1073,23a25,25,0,0,0-6.91.77,8,8,0,0,0-3.71,2.05,4.4,4.4,0,0,0-1,2.81q0,2.31,2.68,3.71a31.35,31.35,0,0,0,7,2.18q4.48.9,9.73,1.92a76.79,76.79,0,0,1,10.63,2.82A40.48,40.48,0,0,1,1101,44a22.08,22.08,0,0,1,7.16,7.68,23.49,23.49,0,0,1,2.69,11.78,26.21,26.21,0,0,1-4.73,15.1q-4.62,6.78-13.83,11T1069.15,93.7Zm97.7,0a58,58,0,0,1-20.23-3.46,48.3,48.3,0,0,1-16-9.73,46.53,46.53,0,0,1-10.62-15,46.47,46.47,0,0,1-3.71-18.69A45.86,45.86,0,0,1,1120,28.16a45.08,45.08,0,0,1,10.62-14.85,47.29,47.29,0,0,1,16-9.85A57.73,57.73,0,0,1,1166.85,0a57,57,0,0,1,20.22,3.46,47.09,47.09,0,0,1,16,9.85,43.64,43.64,0,0,1,10.5,14.85,44.63,44.63,0,0,1,3.84,18.69,46,46,0,0,1-14.34,33.66,48.09,48.09,0,0,1-16,9.73A57.22,57.22,0,0,1,1166.85,93.7Zm29.31,20.6a49.93,49.93,0,0,1-11.65-1.28,38.35,38.35,0,0,1-10.49-4,59.36,59.36,0,0,1-10.5-7.81q-5.51-4.86-12.29-12.16l31.23-7.68a72.3,72.3,0,0,0,5.25,7.29,14,14,0,0,0,4.23,3.59,11.31,11.31,0,0,0,4.86,1q6.66,0,12.42-5.76l13,15.36Q1212.67,114.31,1196.16,114.3Zm-29.31-45a19.54,19.54,0,0,0,7.81-1.54,18.55,18.55,0,0,0,6.4-4.35,20.6,20.6,0,0,0,4.35-7,27.67,27.67,0,0,0,1.53-9.47,26.61,26.61,0,0,0-1.53-9.35,19.18,19.18,0,0,0-4.35-7,18,18,0,0,0-6.4-4.48,19.71,19.71,0,0,0-7.81-1.53,20.64,20.64,0,0,0-7.94,1.53,19.49,19.49,0,0,0-6.4,4.48,19.91,19.91,0,0,0-4.22,7,26.38,26.38,0,0,0-1.54,9.35,27.42,27.42,0,0,0,1.54,9.47,21.45,21.45,0,0,0,4.22,7,20.19,20.19,0,0,0,6.4,4.35A20.47,20.47,0,0,0,1166.85,69.25Zm104.4,24.45q-20.61,0-32.13-11.14T1227.6,51.33V2.05h30.21V50.43q0,10.24,3.71,14.59a12.64,12.64,0,0,0,10,4.23q6.39,0,10-4.23t3.71-14.59V2.05h29.7V51.33q0,20.1-11.52,31.23T1271.25,93.7Zm85.14-58.37h39.94V57.09h-39.94Zm2,33.53h44.8V91.65h-74.49V2.05h72.83V24.83h-43.14Zm56.43,22.79V2.05H1458q12.54,0,21.63,4.09a31.92,31.92,0,0,1,14.21,11.78,31.73,31.73,0,0,1,5,17.92,31.73,31.73,0,0,1-5,17.92,31.69,31.69,0,0,1-14.21,11.39q-9.09,4-21.63,4h-26.37l13.44-12.42v35Zm53.63,0-22-32.64h32l22.27,32.64ZM1445.08,60l-13.44-13.69h24.45q6.27,0,9.21-2.82a9.91,9.91,0,0,0,3.08-7.68,9.91,9.91,0,0,0-3.08-7.68q-2.94-2.82-9.21-2.82h-24.45l13.44-13.69Zm55.44,31.62,39.17-89.6h29.69l39.17,89.6h-31.23l-28.93-75.27h11.78l-28.93,75.27ZM1523.81,76l7.68-21.76h41.22L1580.39,76Zm89.56,15.62V2.05h44.16q15,0,26.37,5.5a41.88,41.88,0,0,1,17.79,15.36q6.4,10,6.4,23.81t-6.4,24.06a42.64,42.64,0,0,1-17.79,15.49q-11.4,5.39-26.37,5.38Zm30.21-23.55h12.67a24,24,0,0,0,11.14-2.44,17.52,17.52,0,0,0,7.55-7.16,24.07,24.07,0,0,0,2.69-11.78,23,23,0,0,0-2.69-11.52,17.48,17.48,0,0,0-7.55-7.17,24.11,24.11,0,0,0-11.14-2.43h-12.67Zm103.19-32.77h39.94V57.09h-39.94Zm2,33.53h44.8V91.65h-74.5V2.05H1792V24.83h-43.13Z"/></g></g></svg>