<svg xmlns="http://www.w3.org/2000/svg" xmlns:xlink="http://www.w3.org/1999/xlink" viewBox="0 0 1799.62 120.3"><defs><style>.cls-1{fill:#fff;}.cls-2{fill:url(#Безымянный_градиент_5);}.cls-3{mask:url(#mask);}.cls-4{fill:#5e5e5e;}</style><linearGradient id="Безымянный_градиент_5" x1="420.8" y1="-86.78" x2="420.8" y2="-241.78" gradientTransform="matrix(1, 0, 0, -1, 479.01, -116.13)" gradientUnits="userSpaceOnUse"><stop offset="0" stop-color="#34090b"/><stop offset="0.37" stop-color="#543435"/><stop offset="0.7" stop-color="#a75155"/><stop offset="1" stop-color="#a76869"/></linearGradient><mask id="mask" x="-0.3" y="-0.35" width="1800" height="121" maskUnits="userSpaceOnUse"><g id="path-1-outside-1_1_2" data-name="path-1-outside-1 1 2"><rect class="cls-1" x="-0.3" y="-0.35" width="1800" height="121"/><path d="M3,94.65V5.05H27.83L63.67,63.54H50.62L85.43,5.05h24.83l.26,89.6H83l-.26-48.13H87.1L63.29,86.58H50L25.14,46.52h5.38V94.65Zm112.4,0,39.16-89.6h29.7l39.17,89.6H192.2L163.27,19.38h11.78L146.12,94.65ZM138.69,79l7.68-21.76h41.22L195.27,79Zm123,17.67a91.8,91.8,0,0,1-21.76-2.56,62,62,0,0,1-17.28-6.66l9.73-22a64.54,64.54,0,0,0,14.2,6,58.14,58.14,0,0,0,15.36,2.18,34,34,0,0,0,6.79-.52,8.87,8.87,0,0,0,3.71-1.66,3.67,3.67,0,0,0,1.15-2.69c0-1.62-.89-2.9-2.69-3.84a27.26,27.26,0,0,0-7.16-2.3c-2.9-.68-6.1-1.37-9.6-2a106.53,106.53,0,0,1-10.63-2.94,43.24,43.24,0,0,1-9.73-4.74,22.61,22.61,0,0,1-7-7.68,24.6,24.6,0,0,1-2.68-12,26.32,26.32,0,0,1,4.6-15.11q4.74-6.9,14-11T265.75,3a84.05,84.05,0,0,1,17.92,1.92,56.58,56.58,0,0,1,15.88,5.89L290.46,32.7a68.14,68.14,0,0,0-12.93-5,45.91,45.91,0,0,0-12-1.66,24.93,24.93,0,0,0-6.91.77,8,8,0,0,0-3.72,2.05,4.4,4.4,0,0,0-1,2.81q0,2.31,2.69,3.71a31.19,31.19,0,0,0,7,2.18c3,.6,6.23,1.24,9.73,1.92a77,77,0,0,1,10.62,2.82,40.11,40.11,0,0,1,9.6,4.73,22,22,0,0,1,7.17,7.68,23.6,23.6,0,0,1,2.69,11.78,26.15,26.15,0,0,1-4.74,15.1q-4.61,6.78-13.82,11T261.66,96.7Zm84.12,0A91.86,91.86,0,0,1,324,94.14a62.22,62.22,0,0,1-17.28-6.66l9.73-22a64.62,64.62,0,0,0,14.21,6A58,58,0,0,0,346,73.66a33.92,33.92,0,0,0,6.78-.52,8.75,8.75,0,0,0,3.71-1.66,3.68,3.68,0,0,0,1.16-2.69q0-2.43-2.69-3.84a27.22,27.22,0,0,0-7.17-2.3c-2.9-.68-6.1-1.37-9.6-2a105.62,105.62,0,0,1-10.62-2.94,43.24,43.24,0,0,1-9.73-4.74,22.51,22.51,0,0,1-7-7.68,24.6,24.6,0,0,1-2.69-12,26.33,26.33,0,0,1,4.61-15.11q4.74-6.9,13.95-11T349.88,3A84.12,84.12,0,0,1,367.8,4.92a56.4,56.4,0,0,1,15.87,5.89L374.58,32.7a67.62,67.62,0,0,0-12.93-5,45.8,45.8,0,0,0-12-1.66,25,25,0,0,0-6.91.77A7.91,7.91,0,0,0,339,28.86a4.41,4.41,0,0,0-1,2.81q0,2.31,2.69,3.71a31.35,31.35,0,0,0,7,2.18q4.49.9,9.73,1.92a76.79,76.79,0,0,1,10.63,2.82A40.23,40.23,0,0,1,377.65,47a22,22,0,0,1,7.17,7.68,23.49,23.49,0,0,1,2.69,11.78,26.21,26.21,0,0,1-4.73,15.1q-4.62,6.78-13.83,11T345.78,96.7Zm41-2,39.17-89.6h29.7l39.16,89.6H463.57L434.64,19.38h11.78L417.49,94.65ZM410.07,79l7.68-21.76H459L466.64,79ZM544.71,96.7a58.36,58.36,0,0,1-20-3.33,48.59,48.59,0,0,1-15.87-9.73A44.41,44.41,0,0,1,498.5,68.79a47.27,47.27,0,0,1-3.71-18.94,47.32,47.32,0,0,1,3.71-19,44.47,44.47,0,0,1,10.37-14.84,46.49,46.49,0,0,1,15.87-9.6,56.31,56.31,0,0,1,20-3.46A55.69,55.69,0,0,1,568,7.61,43.22,43.22,0,0,1,584.9,20.92l-19.07,17A29.88,29.88,0,0,0,557,30.26a20.7,20.7,0,0,0-10.75-2.81A23,23,0,0,0,537.67,29,18.87,18.87,0,0,0,531,33.46a21.53,21.53,0,0,0-4.22,7.17,26.18,26.18,0,0,0-1.53,9.22,27.23,27.23,0,0,0,1.53,9.34,21.62,21.62,0,0,0,4.22,7,18.74,18.74,0,0,0,6.66,4.48,22.8,22.8,0,0,0,8.58,1.54A21.42,21.42,0,0,0,557,69.56a31.47,31.47,0,0,0,8.83-7.81l19.07,17A44.91,44.91,0,0,1,568,92.09,55.69,55.69,0,0,1,544.71,96.7Zm48.92-2V5.05h43.13q12.54,0,21.63,4.09A31.86,31.86,0,0,1,672.6,20.92a31.73,31.73,0,0,1,5,17.92,31.73,31.73,0,0,1-5,17.92,31.64,31.64,0,0,1-14.21,11.39q-9.09,4-21.63,4H610.39L623.83,59.7v35Zm53.63,0L625.24,62h32l22.27,32.64ZM623.83,63,610.39,49.34h24.45q6.27,0,9.22-2.82a9.9,9.9,0,0,0,3.07-7.68,9.9,9.9,0,0,0-3.07-7.68q-3-2.82-9.22-2.82H610.39l13.44-13.69Zm92.82-24.7h39.93V60.09H716.65Zm2.05,33.53h44.8V94.65H689V5.05h72.83V27.83H718.7Zm94.8,22.79V5.05h24.83l35.84,58.49h-13L895.93,5.05h24.83l.26,89.6H893.5l-.26-48.13h4.36L873.79,86.58H860.48L835.64,46.52H841V94.65Zm112.4,0,39.17-89.6h29.69l39.17,89.6H1002.7L973.77,19.38h11.78L956.62,94.65ZM949.19,79l7.68-21.76h41.22L1005.77,79Zm123,17.67a91.86,91.86,0,0,1-21.76-2.56,62.22,62.22,0,0,1-17.28-6.66l9.73-22a64.62,64.62,0,0,0,14.21,6,58,58,0,0,0,15.36,2.18,33.92,33.92,0,0,0,6.78-.52,8.86,8.86,0,0,0,3.72-1.66,3.71,3.71,0,0,0,1.15-2.69q0-2.43-2.69-3.84a27.22,27.22,0,0,0-7.17-2.3c-2.9-.68-6.1-1.37-9.6-2A105.62,105.62,0,0,1,1054,57.66a43.24,43.24,0,0,1-9.73-4.74,22.51,22.51,0,0,1-7-7.68,24.6,24.6,0,0,1-2.69-12,26.33,26.33,0,0,1,4.61-15.11q4.74-6.9,13.95-11T1076.25,3a84.12,84.12,0,0,1,17.92,1.92A56.4,56.4,0,0,1,1110,10.81L1101,32.7a67.8,67.8,0,0,0-12.92-5A45.93,45.93,0,0,0,1076,26a25,25,0,0,0-6.91.77,8,8,0,0,0-3.71,2.05,4.4,4.4,0,0,0-1,2.81q0,2.31,2.68,3.71a31.35,31.35,0,0,0,7,2.18q4.48.9,9.73,1.92a76.79,76.79,0,0,1,10.63,2.82A40.48,40.48,0,0,1,1104,47a22.08,22.08,0,0,1,7.16,7.68,23.49,23.49,0,0,1,2.69,11.78,26.21,26.21,0,0,1-4.73,15.1q-4.62,6.78-13.83,11T1072.15,96.7Zm97.7,0a58,58,0,0,1-20.23-3.46,48.3,48.3,0,0,1-16-9.73,46.53,46.53,0,0,1-10.62-15,46.47,46.47,0,0,1-3.71-18.69A45.86,45.86,0,0,1,1123,31.16a45.08,45.08,0,0,1,10.62-14.85,47.29,47.29,0,0,1,16-9.85A57.73,57.73,0,0,1,1169.85,3a57,57,0,0,1,20.22,3.46,47.09,47.09,0,0,1,16,9.85,43.64,43.64,0,0,1,10.5,14.85,44.63,44.63,0,0,1,3.84,18.69,46,46,0,0,1-14.34,33.66,48.09,48.09,0,0,1-16,9.73A57.22,57.22,0,0,1,1169.85,96.7Zm29.31,20.6a49.93,49.93,0,0,1-11.65-1.28,38.35,38.35,0,0,1-10.49-4,59.36,59.36,0,0,1-10.5-7.81q-5.51-4.86-12.29-12.16l31.23-7.68a72.3,72.3,0,0,0,5.25,7.29,14,14,0,0,0,4.23,3.59,11.31,11.31,0,0,0,4.86,1q6.66,0,12.42-5.76l13,15.36Q1215.67,117.31,1199.16,117.3Zm-29.31-45a19.54,19.54,0,0,0,7.81-1.54,18.55,18.55,0,0,0,6.4-4.35,20.6,20.6,0,0,0,4.35-7,27.67,27.67,0,0,0,1.53-9.47,26.61,26.61,0,0,0-1.53-9.35,19.18,19.18,0,0,0-4.35-7,18,18,0,0,0-6.4-4.48,19.71,19.71,0,0,0-7.81-1.53,20.64,20.64,0,0,0-7.94,1.53,19.49,19.49,0,0,0-6.4,4.48,19.91,19.91,0,0,0-4.22,7,26.38,26.38,0,0,0-1.54,9.35,27.42,27.42,0,0,0,1.54,9.47,21.45,21.45,0,0,0,4.22,7,20.19,20.19,0,0,0,6.4,4.35A20.47,20.47,0,0,0,1169.85,72.25Zm104.4,24.45q-20.61,0-32.13-11.14T1230.6,54.33V5.05h30.21V53.43q0,10.24,3.71,14.59a12.64,12.64,0,0,0,10,4.23q6.39,0,10-4.23t3.71-14.59V5.05h29.7V54.33q0,20.1-11.52,31.23T1274.25,96.7Zm85.14-58.37h39.94V60.09h-39.94Zm2,33.53h44.8V94.65h-74.49V5.05h72.83V27.83h-43.14Zm56.43,22.79V5.05H1461q12.54,0,21.63,4.09a31.92,31.92,0,0,1,14.21,11.78,31.73,31.73,0,0,1,5,17.92,31.73,31.73,0,0,1-5,17.92,31.69,31.69,0,0,1-14.21,11.39q-9.09,4-21.63,4h-26.37l13.44-12.42v35Zm53.63,0-22-32.64h32l22.27,32.64ZM1448.08,63l-13.44-13.69h24.45q6.27,0,9.21-2.82a9.91,9.91,0,0,0,3.08-7.68,9.91,9.91,0,0,0-3.08-7.68q-2.94-2.82-9.21-2.82h-24.45l13.44-13.69Zm55.44,31.62,39.17-89.6h29.69l39.17,89.6h-31.23l-28.93-75.27h11.78l-28.93,75.27ZM1526.81,79l7.68-21.76h41.22L1583.39,79Zm89.56,15.62V5.05h44.16q15,0,26.37,5.5a41.88,41.88,0,0,1,17.79,15.36q6.4,10,6.4,23.81t-6.4,24.06a42.64,42.64,0,0,1-17.79,15.49q-11.4,5.39-26.37,5.38Zm30.21-23.55h12.67a24,24,0,0,0,11.14-2.44,17.52,17.52,0,0,0,7.55-7.16,24.07,24.07,0,0,0,2.69-11.78,23,23,0,0,0-2.69-11.52,17.48,17.48,0,0,0-7.55-7.17,24.11,24.11,0,0,0-11.14-2.43h-12.67Zm103.19-32.77h39.94V60.09h-39.94Zm2,33.53h44.8V94.65h-74.5V5.05H1795V27.83h-43.13Z"/></g></mask></defs><g id="Слой_2" data-name="Слой 2"><g id="Слой_1-2" data-name="Слой 1"><path class="cls-2" d="M3,94.65V5.05H27.83L63.67,63.54H50.62L85.43,5.05h24.83l.26,89.6H83l-.26-48.13H87.1L63.29,86.58H50L25.14,46.52h5.38V94.65Zm112.4,0,39.16-89.6h29.7l39.17,89.6H192.2L163.27,19.38h11.78L146.12,94.65ZM138.69,79l7.68-21.76h41.22L195.27,79Zm123,17.67a91.8,91.8,0,0,1-21.76-2.56,62,62,0,0,1-17.28-6.66l9.73-22a64.54,64.54,0,0,0,14.2,6,58.14,58.14,0,0,0,15.36,2.18,34,34,0,0,0,6.79-.52,8.87,8.87,0,0,0,3.71-1.66,3.67,3.67,0,0,0,1.15-2.69c0-1.62-.89-2.9-2.69-3.84a27.26,27.26,0,0,0-7.16-2.3c-2.9-.68-6.1-1.37-9.6-2a106.53,106.53,0,0,1-10.63-2.94,43.24,43.24,0,0,1-9.73-4.74,22.61,22.61,0,0,1-7-7.68,24.6,24.6,0,0,1-2.68-12,26.32,26.32,0,0,1,4.6-15.11q4.74-6.9,14-11T265.75,3a84.05,84.05,0,0,1,17.92,1.92,56.58,56.58,0,0,1,15.88,5.89L290.46,32.7a68.14,68.14,0,0,0-12.93-5,45.91,45.91,0,0,0-12-1.66,24.93,24.93,0,0,0-6.91.77,8,8,0,0,0-3.72,2.05,4.4,4.4,0,0,0-1,2.81q0,2.31,2.69,3.71a31.19,31.19,0,0,0,7,2.18c3,.6,6.23,1.24,9.73,1.92a77,77,0,0,1,10.62,2.82,40.11,40.11,0,0,1,9.6,4.73,22,22,0,0,1,7.17,7.68,23.6,23.6,0,0,1,2.69,11.78,26.15,26.15,0,0,1-4.74,15.1q-4.61,6.78-13.82,11T261.66,96.7Zm84.12,0A91.86,91.86,0,0,1,324,94.14a62.22,62.22,0,0,1-17.28-6.66l9.73-22a64.62,64.62,0,0,0,14.21,6A58,58,0,0,0,346,73.66a33.92,33.92,0,0,0,6.78-.52,8.75,8.75,0,0,0,3.71-1.66,3.68,3.68,0,0,0,1.16-2.69q0-2.43-2.69-3.84a27.22,27.22,0,0,0-7.17-2.3c-2.9-.68-6.1-1.37-9.6-2a105.62,105.62,0,0,1-10.62-2.94,43.24,43.24,0,0,1-9.73-4.74,22.51,22.51,0,0,1-7-7.68,24.6,24.6,0,0,1-2.69-12,26.33,26.33,0,0,1,4.61-15.11q4.74-6.9,13.95-11T349.88,3A84.12,84.12,0,0,1,367.8,4.92a56.4,56.4,0,0,1,15.87,5.89L374.58,32.7a67.62,67.62,0,0,0-12.93-5,45.8,45.8,0,0,0-12-1.66,25,25,0,0,0-6.91.77A7.91,7.91,0,0,0,339,28.86a4.41,4.41,0,0,0-1,2.81q0,2.31,2.69,3.71a31.35,31.35,0,0,0,7,2.18q4.49.9,9.73,1.92a76.79,76.79,0,0,1,10.63,2.82A40.23,40.23,0,0,1,377.65,47a22,22,0,0,1,7.17,7.68,23.49,23.49,0,0,1,2.69,11.78,26.21,26.21,0,0,1-4.73,15.1q-4.62,6.78-13.83,11T345.78,96.7Zm41-2,39.17-89.6h29.7l39.16,89.6H463.57L434.64,19.38h11.78L417.49,94.65ZM410.07,79l7.68-21.76H459L466.64,79ZM544.71,96.7a58.36,58.36,0,0,1-20-3.33,48.59,48.59,0,0,1-15.87-9.73A44.41,44.41,0,0,1,498.5,68.79a47.27,47.27,0,0,1-3.71-18.94,47.32,47.32,0,0,1,3.71-19,44.47,44.47,0,0,1,10.37-14.84,46.49,46.49,0,0,1,15.87-9.6,56.31,56.31,0,0,1,20-3.46A55.69,55.69,0,0,1,568,7.61,43.22,43.22,0,0,1,584.9,20.92l-19.07,17A29.88,29.88,0,0,0,557,30.26a20.7,20.7,0,0,0-10.75-2.81A23,23,0,0,0,537.67,29,18.87,18.87,0,0,0,531,33.46a21.53,21.53,0,0,0-4.22,7.17,26.18,26.18,0,0,0-1.53,9.22,27.23,27.23,0,0,0,1.53,9.34,21.62,21.62,0,0,0,4.22,7,18.74,18.74,0,0,0,6.66,4.48,22.8,22.8,0,0,0,8.58,1.54A21.42,21.42,0,0,0,557,69.56a31.47,31.47,0,0,0,8.83-7.81l19.07,17A44.91,44.91,0,0,1,568,92.09,55.69,55.69,0,0,1,544.71,96.7Zm48.92-2V5.05h43.13q12.54,0,21.63,4.09A31.86,31.86,0,0,1,672.6,20.92a31.73,31.73,0,0,1,5,17.92,31.73,31.73,0,0,1-5,17.92,31.64,31.64,0,0,1-14.21,11.39q-9.09,4-21.63,4H610.39L623.83,59.7v35Zm53.63,0L625.24,62h32l22.27,32.64ZM623.83,63,610.39,49.34h24.45q6.27,0,9.22-2.82a9.9,9.9,0,0,0,3.07-7.68,9.9,9.9,0,0,0-3.07-7.68q-3-2.82-9.22-2.82H610.39l13.44-13.69Zm92.82-24.7h39.93V60.09H716.65Zm2.05,33.53h44.8V94.65H689V5.05h72.83V27.83H718.7Zm94.8,22.79V5.05h24.83l35.84,58.49h-13L895.93,5.05h24.83l.26,89.6H893.5l-.26-48.13h4.36L873.79,86.58H860.48L835.64,46.52H841V94.65Zm112.4,0,39.17-89.6h29.69l39.17,89.6H1002.7L973.77,19.38h11.78L956.62,94.65ZM949.19,79l7.68-21.76h41.22L1005.77,79Zm123,17.67a91.86,91.86,0,0,1-21.76-2.56,62.22,62.22,0,0,1-17.28-6.66l9.73-22a64.62,64.62,0,0,0,14.21,6,58,58,0,0,0,15.36,2.18,33.92,33.92,0,0,0,6.78-.52,8.86,8.86,0,0,0,3.72-1.66,3.71,3.71,0,0,0,1.15-2.69q0-2.43-2.69-3.84a27.22,27.22,0,0,0-7.17-2.3c-2.9-.68-6.1-1.37-9.6-2A105.62,105.62,0,0,1,1054,57.66a43.24,43.24,0,0,1-9.73-4.74,22.51,22.51,0,0,1-7-7.68,24.6,24.6,0,0,1-2.69-12,26.33,26.33,0,0,1,4.61-15.11q4.74-6.9,13.95-11T1076.25,3a84.12,84.12,0,0,1,17.92,1.92A56.4,56.4,0,0,1,1110,10.81L1101,32.7a67.8,67.8,0,0,0-12.92-5A45.93,45.93,0,0,0,1076,26a25,25,0,0,0-6.91.77,8,8,0,0,0-3.71,2.05,4.4,4.4,0,0,0-1,2.81q0,2.31,2.68,3.71a31.35,31.35,0,0,0,7,2.18q4.48.9,9.73,1.92a76.79,76.79,0,0,1,10.63,2.82A40.48,40.48,0,0,1,1104,47a22.08,22.08,0,0,1,7.16,7.68,23.49,23.49,0,0,1,2.69,11.78,26.21,26.21,0,0,1-4.73,15.1q-4.62,6.78-13.83,11T1072.15,96.7Zm97.7,0a58,58,0,0,1-20.23-3.46,48.3,48.3,0,0,1-16-9.73,46.53,46.53,0,0,1-10.62-15,46.47,46.47,0,0,1-3.71-18.69A45.86,45.86,0,0,1,1123,31.16a45.08,45.08,0,0,1,10.62-14.85,47.29,47.29,0,0,1,16-9.85A57.73,57.73,0,0,1,1169.85,3a57,57,0,0,1,20.22,3.46,47.09,47.09,0,0,1,16,9.85,43.64,43.64,0,0,1,10.5,14.85,44.63,44.63,0,0,1,3.84,18.69,46,46,0,0,1-14.34,33.66,48.09,48.09,0,0,1-16,9.73A57.22,57.22,0,0,1,1169.85,96.7Zm29.31,20.6a49.93,49.93,0,0,1-11.65-1.28,38.35,38.35,0,0,1-10.49-4,59.36,59.36,0,0,1-10.5-7.81q-5.51-4.86-12.29-12.16l31.23-7.68a72.3,72.3,0,0,0,5.25,7.29,14,14,0,0,0,4.23,3.59,11.31,11.31,0,0,0,4.86,1q6.66,0,12.42-5.76l13,15.36Q1215.67,117.31,1199.16,117.3Zm-29.31-45a19.54,19.54,0,0,0,7.81-1.54,18.55,18.55,0,0,0,6.4-4.35,20.6,20.6,0,0,0,4.35-7,27.67,27.67,0,0,0,1.53-9.47,26.61,26.61,0,0,0-1.53-9.35,19.18,19.18,0,0,0-4.35-7,18,18,0,0,0-6.4-4.48,19.71,19.71,0,0,0-7.81-1.53,20.64,20.64,0,0,0-7.94,1.53,19.49,19.49,0,0,0-6.4,4.48,19.91,19.91,0,0,0-4.22,7,26.38,26.38,0,0,0-1.54,9.35,27.42,27.42,0,0,0,1.54,9.47,21.45,21.45,0,0,0,4.22,7,20.19,20.19,0,0,0,6.4,4.35A20.47,20.47,0,0,0,1169.85,72.25Zm104.4,24.45q-20.61,0-32.13-11.14T1230.6,54.33V5.05h30.21V53.43q0,10.24,3.71,14.59a12.64,12.64,0,0,0,10,4.23q6.39,0,10-4.23t3.71-14.59V5.05h29.7V54.33q0,20.1-11.52,31.23T1274.25,96.7Zm85.14-58.37h39.94V60.09h-39.94Zm2,33.53h44.8V94.65h-74.49V5.05h72.83V27.83h-43.14Zm56.43,22.79V5.05H1461q12.54,0,21.63,4.09a31.92,31.92,0,0,1,14.21,11.78,31.73,31.73,0,0,1,5,17.92,31.73,31.73,0,0,1-5,17.92,31.69,31.69,0,0,1-14.21,11.39q-9.09,4-21.63,4h-26.37l13.44-12.42v35Zm53.63,0-22-32.64h32l22.27,32.64ZM1448.08,63l-13.44-13.69h24.45q6.27,0,9.21-2.82a9.91,9.91,0,0,0,3.08-7.68,9.91,9.91,0,0,0-3.08-7.68q-2.94-2.82-9.21-2.82h-24.45l13.44-13.69Zm55.44,31.62,39.17-89.6h29.69l39.17,89.6h-31.23l-28.93-75.27h11.78l-28.93,75.27ZM1526.81,79l7.68-21.76h41.22L1583.39,79Zm89.56,15.62V5.05h44.16q15,0,26.37,5.5a41.88,41.88,0,0,1,17.79,15.36q6.4,10,6.4,23.81t-6.4,24.06a42.64,42.64,0,0,1-17.79,15.49q-11.4,5.39-26.37,5.38Zm30.21-23.55h12.67a24,24,0,0,0,11.14-2.44,17.52,17.52,0,0,0,7.55-7.16,24.07,24.07,0,0,0,2.69-11.78,23,23,0,0,0-2.69-11.52,17.48,17.48,0,0,0-7.55-7.17,24.11,24.11,0,0,0-11.14-2.43h-12.67Zm103.19-32.77h39.94V60.09h-39.94Zm2,33.53h44.8V94.65h-74.5V5.05H1795V27.83h-43.13Z"/><g class="cls-3"><path class="cls-4" d="M3,94.65H0v3H3ZM3,5.05v-3H0v3Zm24.83,0,2.56-1.57-.88-1.43H27.83ZM63.67,63.54v3H69L66.23,62Zm-13.05,0L48,62l-2.7,4.53h5.28ZM85.43,5.05v-3h-1.7l-.88,1.46Zm24.83,0h3v-3h-3Zm.26,89.6v3h3v-3ZM83,94.65H80l0,3h3Zm-.26-48.13v-3h-3v3Zm4.36,0,2.58,1.53,2.69-4.53H87.1ZM63.29,86.58v3H65l.87-1.46ZM50,86.58l-2.55,1.58.88,1.42H50ZM25.14,46.52v-3H19.76l2.83,4.58Zm5.38,0h3v-3h-3Zm0,48.13v3h3v-3ZM6,94.65V5.05H0v89.6ZM3,8.05H27.83v-6H3ZM25.27,6.62,61.11,65.11,66.23,62,30.39,3.48Zm38.4,53.92H50.62v6H63.67ZM53.19,65.08,88,6.58,82.85,3.51,48,62Zm32.24-57h24.83v-6H85.43Zm21.83-3,.26,89.6,6,0L113.26,5Zm3.26,86.59H83v6h27.52ZM86,94.63,85.74,46.5l-6,0L80,94.66ZM82.74,49.52H87.1v-6H82.74ZM84.52,45,60.71,85.05l5.16,3.07L89.68,48.05ZM63.29,83.58H50v6H63.29ZM52.53,85,27.69,44.94l-5.1,3.16L47.43,88.16ZM25.14,49.52h5.38v-6H25.14Zm2.38-3V94.65h6V46.52Zm3,45.13H3v6H30.52Zm84.88,3-2.75-1.2-1.84,4.2h4.59Zm39.16-89.6v-3h-2l-.78,1.8Zm29.7,0L187,3.85l-.79-1.8h-2Zm39.17,89.6v3H228l-1.84-4.2Zm-31.23,0-2.8,1.07.74,1.93h2.06ZM163.27,19.38v-3H158.9l1.57,4.08Zm11.78,0,2.8,1.08,1.56-4.08h-4.36ZM146.12,94.65v3h2.06l.74-1.93ZM138.69,79l-2.83-1-1.41,4h4.24Zm7.68-21.76v-3h-2.12l-.71,2Zm41.22,0,2.83-1-.71-2h-2.12ZM195.27,79v3h4.24l-1.41-4ZM118.15,95.85l39.16-89.6-5.49-2.4-39.17,89.6Zm36.41-87.8h29.7v-6h-29.7Zm26.95-1.8,39.17,89.6,5.5-2.4L187,3.85Zm41.92,85.4H192.2v6h31.23ZM195,93.57,166.07,18.31l-5.6,2.15L189.4,95.72ZM163.27,22.38h11.78v-6H163.27Zm9-4.07L143.32,93.57l5.6,2.15,28.93-75.26ZM146.12,91.65H115.4v6h30.72ZM141.52,80l7.68-21.76-5.66-2L135.86,78Zm4.85-19.76h41.22v-6H146.37Zm38.39-2L192.44,80l5.66-2-7.68-21.76ZM195.27,76H138.69v6h56.58ZM239.9,94.14l.71-2.92Zm-17.28-6.66-2.75-1.21-1.06,2.41,2.26,1.37Zm9.73-22,1.5-2.59L231,61.19l-1.36,3.06Zm14.2,6-.84,2.88h0Zm22.15,1.66.62,2.94h.05l.06,0Zm3.71-1.66,2,2.24.07-.06.06-.06ZM270.87,65l-1.39,2.66Zm-7.16-2.3L263,65.57h.1Zm-9.6-2-.65,2.93h.07Zm-10.63-2.94-1,2.84h0Zm-9.73-4.74-1.68,2.48,0,0h0Zm-7-7.68-2.62,1.45v0h0Zm1.92-27.14-2.47-1.69h0Zm14-11-1.21-2.75h0Zm41.08-2.18L283,7.85Zm15.88,5.89L302.32,12l1-2.46L301,8.19ZM290.46,32.7l-1.34,2.68L292,36.82l1.24-3Zm-12.93-5-.78,2.9h0Zm-18.94-.89-.87-2.88Zm-3.72,2.05-2.23-2,0,.06-.06.07Zm1.67,6.52L255.15,38l0,0,.05,0Zm7,2.18L263,40.5h0Zm9.73,1.92-.58,2.94h0Zm10.62,2.82-1,2.83Zm9.6,4.73-1.68,2.49h0Zm7.17,7.68-2.61,1.48Zm-2.05,26.88-2.47-1.69h0Zm-13.82,11L286,95.34h0Zm-23.17,1.1a88.36,88.36,0,0,1-21.05-2.48l-1.42,5.83a94.28,94.28,0,0,0,22.47,2.65Zm-21.05-2.48a59,59,0,0,1-16.44-6.31l-3.1,5.14a64.77,64.77,0,0,0,18.12,7Zm-15.25-2.53,9.73-22-5.49-2.43-9.73,22Zm5.48-20.63a67.94,67.94,0,0,0,14.87,6.3l1.69-5.76a61.56,61.56,0,0,1-13.55-5.73Zm14.92,6.31a60.76,60.76,0,0,0,16.15,2.29v-6a55.29,55.29,0,0,1-14.56-2.07Zm16.15,2.29a37.93,37.93,0,0,0,7.41-.58l-1.24-5.87a31.8,31.8,0,0,1-6.17.45Zm7.52-.61a11.68,11.68,0,0,0,5-2.33l-4-4.48a6.31,6.31,0,0,1-2.45,1Zm5.1-2.45a6.69,6.69,0,0,0,2-4.81h-6a.71.71,0,0,1-.27.57Zm2-4.81a7.25,7.25,0,0,0-4.29-6.5l-2.79,5.32c1.1.57,1.08,1,1.08,1.18Zm-4.29-6.5a29.92,29.92,0,0,0-8-2.58l-1.17,5.88a24.28,24.28,0,0,1,6.36,2Zm-7.88-2.56q-4.41-1-9.71-2.07l-1.15,5.88q5.21,1,9.49,2Zm-9.64-2.06a101.17,101.17,0,0,1-10.32-2.86l-1.9,5.69a106.56,106.56,0,0,0,10.93,3Zm-10.3-2.85a40,40,0,0,1-9-4.41l-3.29,5a46.21,46.21,0,0,0,10.4,5.07Zm-9-4.38a19.68,19.68,0,0,1-6.12-6.68l-5.21,3a25.52,25.52,0,0,0,8,8.68Zm-6.1-6.65A21.6,21.6,0,0,1,227,33.21h-6a27.55,27.55,0,0,0,3.06,13.48ZM227,33.21a23.28,23.28,0,0,1,4.09-13.42l-5-3.37A29.32,29.32,0,0,0,221,33.21Zm4.08-13.41c2.78-4.06,6.95-7.41,12.69-10l-2.43-5.49c-6.55,2.91-11.68,6.91-15.21,12.06Zm12.68-10c5.74-2.51,13-3.84,22-3.84V0c-9.49,0-17.65,1.4-24.37,4.35Zm22-3.84A81.44,81.44,0,0,1,283,7.85L284.31,2a86.82,86.82,0,0,0-18.56-2ZM283,7.85a53.78,53.78,0,0,1,15,5.57L301,8.19A59.61,59.61,0,0,0,284.31,2Zm13.74,1.81-9.09,21.89,5.54,2.3L302.32,12ZM291.8,30a71.34,71.34,0,0,0-13.5-5.21l-1.54,5.8a65,65,0,0,1,12.36,4.78Zm-13.49-5.2A49,49,0,0,0,265.5,23v6a42.8,42.8,0,0,1,11.25,1.56ZM265.5,23a27.89,27.89,0,0,0-7.78.89l1.73,5.75A22.15,22.15,0,0,1,265.5,29Zm-7.78.89a11,11,0,0,0-5.08,2.92l4.46,4a5.41,5.41,0,0,1,2.35-1.18ZM252.53,27a7.4,7.4,0,0,0-1.68,4.69h6a1.42,1.42,0,0,1,.37-.94Zm-1.68,4.69c0,3,1.88,5.11,4.3,6.37l2.78-5.31a2.8,2.8,0,0,1-1-.74.49.49,0,0,1-.1-.32Zm4.4,6.42A34.36,34.36,0,0,0,263,40.5l1.21-5.88a28.52,28.52,0,0,1-6.35-1.94ZM263,40.5q4.49.9,9.74,1.92l1.15-5.88-9.71-1.92Zm9.75,1.93A75.46,75.46,0,0,1,283,45.13l1.94-5.67a81.2,81.2,0,0,0-11-2.93ZM283,45.13a37.39,37.39,0,0,1,8.89,4.39l3.36-5a42.88,42.88,0,0,0-10.31-5.09Zm8.92,4.41a19.15,19.15,0,0,1,6.21,6.65l5.22-3a25.24,25.24,0,0,0-8.13-8.71Zm6.21,6.65a20.67,20.67,0,0,1,2.3,10.3h6a26.56,26.56,0,0,0-3.08-13.26Zm2.3,10.3a23.2,23.2,0,0,1-4.21,13.41l4.94,3.39a29.13,29.13,0,0,0,5.27-16.8Zm-4.22,13.42c-2.7,4-6.83,7.32-12.59,10l2.5,5.46c6.52-3,11.61-7,15.05-12Zm-12.56,10c-5.65,2.51-12.92,3.84-21.95,3.84v6c9.57,0,17.74-1.41,24.38-4.36ZM324,94.14l.71-2.92Zm-17.28-6.66L304,86.27l-1.07,2.41,2.26,1.37Zm9.73-22L318,62.87l-2.9-1.68-1.35,3.06Zm14.21,6-.85,2.88h.06Zm22.14,1.66.62,2.94h.06l.05,0Zm3.71-1.66,2,2.24.06-.06.07-.06ZM355,65l-1.39,2.66Zm-7.17-2.3-.69,2.92h.1Zm-9.6-2-.64,2.93h.07Zm-10.62-2.94-1,2.84h0Zm-9.73-4.74L316.2,55.4v0h0Zm-7-7.68-2.63,1.45v0h0Zm1.92-27.14-2.48-1.69h0Zm13.95-11-1.2-2.75h0ZM367.8,4.92l-.64,2.93Zm15.87,5.89L386.44,12l1-2.46-2.32-1.31ZM374.58,32.7l-1.34,2.68,2.88,1.44,1.23-3Zm-12.93-5-.78,2.9h0Zm-18.94-.89-.86-2.88ZM339,28.86l-2.23-2-.06.06,0,.07Zm1.66,6.52L339.27,38l.05,0,.05,0Zm7,2.18-.6,2.94h0Zm9.73,1.92-.57,2.94h0Zm10.63,2.82-1,2.83ZM377.65,47,376,49.52h0Zm7.17,7.68-2.61,1.48Zm-2,26.88L380.3,79.9h0ZM369,92.6l1.22,2.74h0Zm-23.17,1.1a88.42,88.42,0,0,1-21-2.48l-1.42,5.83a94.28,94.28,0,0,0,22.47,2.65Zm-21-2.48a59,59,0,0,1-16.44-6.31l-3.1,5.14a64.89,64.89,0,0,0,18.12,7Zm-15.24-2.53,9.72-22-5.48-2.43-9.73,22ZM315,68.06a68.06,68.06,0,0,0,14.86,6.3l1.7-5.76A61.56,61.56,0,0,1,318,62.87Zm14.92,6.31A60.7,60.7,0,0,0,346,76.66v-6a55.3,55.3,0,0,1-14.57-2.07ZM346,76.66a37.82,37.82,0,0,0,7.4-.58l-1.23-5.87a32,32,0,0,1-6.17.45Zm7.51-.61a11.67,11.67,0,0,0,5-2.33l-4-4.48a6.23,6.23,0,0,1-2.45,1Zm5.11-2.45a6.69,6.69,0,0,0,2-4.81h-6a.69.69,0,0,1-.28.57Zm2-4.81a7.26,7.26,0,0,0-4.3-6.5l-2.78,5.32c1.09.57,1.08,1,1.08,1.18Zm-4.3-6.5a29.85,29.85,0,0,0-8-2.58l-1.18,5.88a24.37,24.37,0,0,1,6.37,2Zm-7.87-2.56c-2.95-.7-6.18-1.39-9.71-2.07l-1.15,5.88c3.46.68,6.63,1.36,9.48,2Zm-9.65-2.06a101,101,0,0,1-10.31-2.86l-1.9,5.69a105.86,105.86,0,0,0,10.93,3Zm-10.29-2.85a40,40,0,0,1-9.05-4.41l-3.3,5a46.5,46.5,0,0,0,10.41,5.07Zm-9-4.38a19.66,19.66,0,0,1-6.11-6.68l-5.22,3a25.55,25.55,0,0,0,8,8.68Zm-6.1-6.65a21.72,21.72,0,0,1-2.31-10.58h-6a27.66,27.66,0,0,0,3.06,13.48Zm-2.31-10.58a23.28,23.28,0,0,1,4.09-13.42l-5-3.37a29.25,29.25,0,0,0-5.13,16.79Zm4.08-13.41c2.79-4.06,7-7.41,12.7-10l-2.44-5.49c-6.55,2.91-11.68,6.91-15.21,12.06Zm12.68-10c5.75-2.51,13-3.84,22-3.84V0c-9.49,0-17.66,1.4-24.37,4.35Zm22-3.84a81.42,81.42,0,0,1,17.28,1.85L368.44,2a86.89,86.89,0,0,0-18.56-2Zm17.28,1.85a53.85,53.85,0,0,1,15,5.57l2.94-5.23A59.66,59.66,0,0,0,368.44,2ZM380.9,9.66l-9.09,21.89,5.54,2.3L386.44,12Zm-5,20.35a71.68,71.68,0,0,0-13.51-5.21l-1.53,5.8a65.21,65.21,0,0,1,12.35,4.78Zm-13.49-5.2A49.06,49.06,0,0,0,349.62,23v6a42.75,42.75,0,0,1,11.25,1.56ZM349.62,23a27.86,27.86,0,0,0-7.77.89l1.72,5.75a22.26,22.26,0,0,1,6.05-.64Zm-7.77.89a10.92,10.92,0,0,0-5.08,2.92l4.46,4a5.42,5.42,0,0,1,2.34-1.18ZM336.66,27A7.41,7.41,0,0,0,335,31.67h6a1.42,1.42,0,0,1,.37-.94ZM335,31.67c0,3,1.89,5.11,4.3,6.37l2.79-5.31a2.7,2.7,0,0,1-1-.74.45.45,0,0,1-.11-.32Zm4.4,6.42a34.29,34.29,0,0,0,7.73,2.41l1.21-5.88A28.8,28.8,0,0,1,342,32.68Zm7.75,2.41c3,.6,6.23,1.24,9.74,1.92L358,36.54l-9.72-1.92Zm9.75,1.93a75.85,75.85,0,0,1,10.22,2.7L369,39.46a80.81,80.81,0,0,0-11-2.93Zm10.22,2.7A37.14,37.14,0,0,1,376,49.52l3.37-5A43.13,43.13,0,0,0,369,39.46ZM376,49.54a19.12,19.12,0,0,1,6.2,6.65l5.22-3a25.15,25.15,0,0,0-8.13-8.71Zm6.2,6.65a20.67,20.67,0,0,1,2.3,10.3h6a26.45,26.45,0,0,0-3.08-13.26Zm2.3,10.3A23.2,23.2,0,0,1,380.3,79.9l4.95,3.39a29.19,29.19,0,0,0,5.26-16.8Zm-4.22,13.42c-2.7,4-6.83,7.32-12.59,10l2.5,5.46c6.53-3,11.61-7,15.06-12Zm-12.56,10c-5.64,2.51-12.92,3.84-22,3.84v6c9.57,0,17.75-1.41,24.39-4.36Zm19,4.79L384,93.45l-1.83,4.2h4.58Zm39.17-89.6v-3h-2l-.79,1.8Zm29.7,0,2.74-1.2-.78-1.8h-2Zm39.16,89.6v3h4.59l-1.84-4.2Zm-31.23,0-2.8,1.07.74,1.93h2.06ZM434.64,19.38v-3h-4.36l1.56,4.08Zm11.78,0,2.8,1.08,1.57-4.08h-4.37ZM417.49,94.65v3h2.06l.74-1.93ZM410.07,79l-2.83-1-1.41,4h4.24Zm7.68-21.76v-3h-2.13l-.7,2Zm41.21,0,2.83-1-.7-2H459ZM466.64,79v3h4.24l-1.41-4ZM389.52,95.85l39.17-89.6-5.5-2.4L384,93.45Zm36.42-87.8h29.7v-6h-29.7Zm26.95-1.8,39.17,89.6,5.49-2.4L458.38,3.85Zm41.91,85.4H463.57v6H494.8Zm-28.43,1.92L437.44,18.31l-5.6,2.15,28.93,75.26ZM434.64,22.38h11.78v-6H434.64Zm9-4.07L414.69,93.57l5.6,2.15,28.93-75.26ZM417.49,91.65H386.77v6h30.72ZM412.9,80l7.68-21.76-5.66-2L407.24,78Zm4.85-19.76H459v-6H417.75Zm38.38-2L463.81,80l5.66-2-7.68-21.76ZM466.64,76H410.07v6h56.57Zm58.1,17.34-1.06,2.8h0Zm-15.87-9.73-2.06,2.18h0ZM498.5,68.79,495.75,70Zm0-37.89-2.75-1.19Zm10.37-14.84-2-2.21h0Zm15.87-9.6,1,2.81h0ZM568,7.61l-1.25,2.73h0ZM584.9,20.92l2,2.24L589,21.31l-1.68-2.21Zm-19.07,17-2.35,1.87,2,2.49,2.37-2.12ZM557,30.26l-1.53,2.58,0,0,0,0ZM537.67,29l1.11,2.79ZM531,33.46l-2.16-2.07,0,0,0,0Zm-4.22,7.17,2.81,1.06v0h0Zm0,18.56-2.82,1h0v0Zm4.22,7-2.21,2,0,0,0,0Zm6.66,4.48-1.11,2.79ZM557,69.56l1.48,2.61h0Zm8.83-7.81,2-2.24-2.37-2.11-2,2.49Zm19.07,17,2.37,1.84L589,78.4l-2.09-1.86ZM568,92.09l1.24,2.73h0Zm-23.3,1.61a55.4,55.4,0,0,1-19-3.15l-2,5.64a61.33,61.33,0,0,0,21,3.51Zm-18.9-3.14a45.45,45.45,0,0,1-14.9-9.12l-4.08,4.4a51.41,51.41,0,0,0,16.85,10.33Zm-14.88-9.1a41.43,41.43,0,0,1-9.67-13.86L495.75,70a47.21,47.21,0,0,0,11.06,15.84ZM501.26,67.6a44.09,44.09,0,0,1-3.47-17.75h-6a50.08,50.08,0,0,0,4,20.13Zm-3.47-17.75a44.09,44.09,0,0,1,3.47-17.75l-5.51-2.39a50.13,50.13,0,0,0-4,20.14Zm3.47-17.75a41.23,41.23,0,0,1,9.67-13.86l-4.12-4.37a47.41,47.41,0,0,0-11.06,15.84Zm9.65-13.84a43.86,43.86,0,0,1,14.86-9l-2.06-5.63a49.94,49.94,0,0,0-16.88,10.21Zm14.89-9A53.52,53.52,0,0,1,544.71,6V0a59.46,59.46,0,0,0-21,3.65ZM544.71,6a52.54,52.54,0,0,1,22,4.34l2.49-5.46A58.63,58.63,0,0,0,544.71,0Zm22.07,4.34a40.41,40.41,0,0,1,15.74,12.4l4.77-3.64a46.24,46.24,0,0,0-18-14.23Zm16.12,8.34-19.07,17,4,4.47,19.07-17Zm-14.72,17.4a32.6,32.6,0,0,0-9.73-8.44l-2.9,5.25a26.6,26.6,0,0,1,7.93,6.92Zm-9.65-8.39a23.58,23.58,0,0,0-12.28-3.24v6a17.73,17.73,0,0,1,9.22,2.39Zm-12.28-3.24a25.77,25.77,0,0,0-9.69,1.75l2.22,5.57a20,20,0,0,1,7.47-1.32Zm-9.69,1.75a21.61,21.61,0,0,0-7.71,5.19l4.33,4.15a15.83,15.83,0,0,1,5.6-3.77Zm-7.76,5.24A24.24,24.24,0,0,0,524,39.61l5.64,2a18.37,18.37,0,0,1,3.62-6.17ZM524,39.58a29.1,29.1,0,0,0-1.72,10.27h6a23,23,0,0,1,1.34-8.16Zm-1.72,10.27A30.17,30.17,0,0,0,524,60.22l5.64-2a24.2,24.2,0,0,1-1.35-8.32ZM524,60.25a24.64,24.64,0,0,0,4.82,8l4.43-4a18.4,18.4,0,0,1-3.63-6.07Zm4.87,8.06a21.74,21.74,0,0,0,7.71,5.19l2.22-5.57a15.83,15.83,0,0,1-5.6-3.77Zm7.71,5.19a26,26,0,0,0,9.69,1.75v-6a20,20,0,0,1-7.47-1.32Zm9.69,1.75a24.45,24.45,0,0,0,12.23-3.08l-3-5.22a18.42,18.42,0,0,1-9.27,2.3Zm12.25-3.09a34.57,34.57,0,0,0,9.68-8.54l-4.7-3.73a28.46,28.46,0,0,1-8,7.07ZM563.83,64,582.9,81l4-4.47-19.07-17Zm18.7,12.95a41.9,41.9,0,0,1-15.78,12.43l2.52,5.44a47.83,47.83,0,0,0,18-14.19ZM566.76,89.36a52.69,52.69,0,0,1-22,4.34v6a58.63,58.63,0,0,0,24.54-4.88Zm26.87,5.29h-3v3h3Zm0-89.6v-3h-3v3Zm64.76,4.09-1.23,2.74h0ZM672.6,20.92l-2.51,1.63h0Zm0,35.84,2.49,1.67h0ZM658.39,68.15l-1.18-2.75h0Zm-48,4-2-2.2-5.64,5.2h7.67ZM623.83,59.7h3V52.85l-5,4.65Zm0,35v3h3v-3Zm23.43,0-2.49,1.68.89,1.32h1.6ZM625.24,62V59H619.6l3.15,4.68Zm32,0,2.48-1.69L658.83,59h-1.59Zm22.27,32.64v3h5.68L682,93ZM623.83,63l-2.14,2.1,5.14,5.24V63ZM610.39,49.34v-3h-7.14l5,5.1Zm33.67-2.82-2-2.21,0,0,0,0Zm0-15.36L642,33.33l0,0,0,0Zm-33.67-2.82-2.14-2.1-5,5.1h7.14Zm13.44-13.69h3V7.31l-5.14,5.24Zm-27.2,80V5.05h-6v89.6Zm-3-86.6h43.13v-6H593.63Zm43.13,0c8,0,14.82,1.31,20.4,3.83l2.47-5.47c-6.54-2.95-14.19-4.36-22.87-4.36Zm20.42,3.84a28.94,28.94,0,0,1,12.91,10.66l5-3.27A34.92,34.92,0,0,0,659.61,6.4ZM670.1,22.57a28.77,28.77,0,0,1,4.49,16.27h6a34.7,34.7,0,0,0-5.49-19.57Zm4.49,16.27a28.77,28.77,0,0,1-4.49,16.27l5,3.3a34.7,34.7,0,0,0,5.49-19.57Zm-4.48,16.25a28.76,28.76,0,0,1-12.9,10.31l2.37,5.51a34.69,34.69,0,0,0,15.51-12.48ZM657.19,65.4c-5.59,2.45-12.37,3.72-20.43,3.72v6c8.67,0,16.31-1.37,22.83-4.22Zm-20.43,3.72H610.39v6h26.37Zm-24.33,5.2,13.44-12.41L621.8,57.5,608.36,69.92Zm8.4-14.62v35h6V59.7Zm3,32h-30.2v6h30.2ZM649.74,93l-22-32.64-5,3.36,22,32.64Zm-24.5-28h32V59h-32Zm29.52-1.31L677,96.34,682,93,659.72,60.32Zm24.75,28H647.26v6h32.25ZM626,60.93l-13.44-13.7-4.28,4.21,13.44,13.69Zm-15.58-8.59h24.45v-6H610.39Zm24.45,0c4.55,0,8.53-1,11.29-3.65L642,44.35c-1.16,1.12-3.33,2-7.14,2Zm11.24-3.61a12.86,12.86,0,0,0,4-9.89h-6a6.93,6.93,0,0,1-2.1,5.47Zm4-9.89a12.86,12.86,0,0,0-4-9.89L642,33.37a6.93,6.93,0,0,1,2.1,5.47Zm-4-9.85c-2.76-2.64-6.74-3.65-11.29-3.65v6c3.81,0,6,.87,7.14,2Zm-11.29-3.65H610.39v6h24.45Zm-22.31,5.11L626,16.75l-4.28-4.2L608.25,26.24Zm8.3-15.8V63h6V14.65Zm95.82,23.68v-3h-3v3Zm39.93,0h3v-3h-3Zm0,21.76v3h3v-3Zm-39.93,0h-3v3h3Zm2.05,11.77h-3v3h3Zm44.8,0h3v-3h-3Zm0,22.79v3h3v-3Zm-74.5,0h-3v3h3Zm0-89.6v-3h-3v3Zm72.83,0h3v-3h-3Zm0,22.78v3h3v-3Zm-43.13,0v-3h-3v3Zm-2.05,13.5h39.93v-6H716.65Zm36.93-3V60.09h6V38.33Zm3,18.76H716.65v6h39.93Zm-36.93,3V38.33h-6V60.09Zm-.95,14.77h44.8v-6H718.7Zm41.8-3V94.65h6V71.86Zm3,19.79H689v6h74.5Zm-71.5,3V5.05h-6v89.6Zm-3-86.6h72.83v-6H689Zm69.83-3V27.83h6V5.05Zm3,19.78H718.7v6h43.13Zm-46.13,3v44h6v-44Zm97.8,66.82h-3v3h3Zm0-89.6v-3h-3v3Zm24.83,0,2.56-1.57L840,2.05h-1.68Zm35.84,58.49v3h5.36L876.73,62Zm-13,0L858.54,62l-2.7,4.53h5.28ZM895.93,5.05v-3h-1.7l-.88,1.46Zm24.83,0h3v-3h-3Zm.26,89.6v3h3v-3Zm-27.52,0h-3l0,3h3Zm-.26-48.13v-3h-3v3Zm4.36,0,2.58,1.53,2.69-4.53H897.6ZM873.79,86.58v3h1.71l.87-1.46Zm-13.31,0-2.55,1.58.88,1.42h1.67ZM835.64,46.52v-3h-5.38l2.83,4.58Zm5.38,0h3v-3h-3Zm0,48.13v3h3v-3Zm-24.52,0V5.05h-6v89.6Zm-3-86.6h24.83v-6H813.5Zm22.27-1.43,35.84,58.49L876.73,62,840.89,3.48Zm38.4,53.92h-13v6h13Zm-10.48,4.54,34.82-58.5-5.16-3.07L858.54,62Zm32.24-57h24.83v-6H895.93Zm21.83-3,.26,89.6,6,0L923.76,5ZM921,91.65H893.5v6H921Zm-24.52,3-.26-48.13-6,0,.26,48.12Zm-3.26-45.11h4.36v-6h-4.36ZM895,45,871.21,85.05l5.16,3.07,23.81-40.07ZM873.79,83.58H860.48v6h13.31ZM863,85,838.19,44.94l-5.1,3.16,24.84,40.06ZM835.64,49.52H841v-6h-5.38Zm2.38-3V94.65h6V46.52Zm3,45.13H813.5v6H841Zm84.88,3-2.75-1.2-1.84,4.2h4.59Zm39.17-89.6v-3h-2l-.78,1.8Zm29.69,0,2.75-1.2-.79-1.8h-2Zm39.16,89.6v3h4.59l-1.84-4.2Zm-31.22,0-2.8,1.07.74,1.93h2.06ZM973.77,19.38v-3H969.4L971,20.46Zm11.78,0,2.79,1.08,1.57-4.08h-4.36ZM956.62,94.65v3h2.06l.74-1.93ZM949.19,79l-2.83-1L945,82h4.24Zm7.68-21.76v-3h-2.12l-.71,2Zm41.22,0,2.83-1-.71-2h-2.12ZM1005.77,79v3H1010l-1.42-4ZM928.65,95.85l39.16-89.6-5.49-2.4-39.17,89.6Zm36.42-87.8h29.69v-6H965.07ZM992,6.25l39.17,89.6,5.49-2.4L997.51,3.85Zm41.91,85.4H1002.7v6h31.22Zm-28.43,1.92L976.57,18.31,971,20.46,999.9,95.72ZM973.77,22.38h11.78v-6H973.77Zm9-4.07L953.82,93.57l5.6,2.15,28.92-75.26ZM956.62,91.65H925.9v6h30.72ZM952,80l7.68-21.76-5.66-2L946.36,78Zm4.85-19.76h41.22v-6H956.87Zm38.39-2L1002.94,80l5.65-2-7.67-21.76ZM1005.77,76H949.19v6h56.58Zm44.62,18.11.71-2.92Zm-17.28-6.66-2.74-1.21-1.07,2.41,2.26,1.37Zm9.73-22,1.51-2.59-2.9-1.68-1.35,3.06Zm14.21,6-.85,2.88h.06Zm22.14,1.66.62,2.94h.06l.05,0Zm3.72-1.66,2,2.24.07-.06.06-.06ZM1081.37,65,1080,67.61Zm-7.17-2.3-.69,2.92h.1Zm-9.6-2-.64,2.93h.07ZM1054,57.66l-1,2.84h0Zm-9.73-4.74-1.68,2.48,0,0h0Zm-7-7.68-2.63,1.45v0h0Zm1.92-27.14-2.47-1.69h0Zm13.95-11-1.2-2.75h0Zm41.09-2.18-.64,2.93ZM1110,10.81l2.77,1.15,1-2.46-2.31-1.31ZM1101,32.7l-1.34,2.68,2.88,1.44,1.23-3Zm-12.92-5-.79,2.9h0Zm-19-.89-.86-2.88h0Zm-3.71,2.05-2.23-2-.06.06,0,.07Zm1.66,6.52L1065.64,38l0,0,0,0Zm7,2.18-.6,2.94h0Zm9.73,1.92-.57,2.94h0Zm10.63,2.82-1,2.83ZM1104,47l-1.68,2.49h0Zm7.16,7.68-2.61,1.48Zm-2,26.88-2.48-1.69h0Zm-13.83,11,1.22,2.74h0Zm-23.17,1.1a88.42,88.42,0,0,1-21.05-2.48l-1.42,5.83a94.34,94.34,0,0,0,22.47,2.65Zm-21.05-2.48a59,59,0,0,1-16.44-6.31l-3.1,5.14a64.89,64.89,0,0,0,18.12,7Zm-15.24-2.53,9.73-22-5.49-2.43-9.73,22Zm5.48-20.63a68.06,68.06,0,0,0,14.86,6.3l1.7-5.76a61.56,61.56,0,0,1-13.55-5.73Zm14.92,6.31a60.76,60.76,0,0,0,16.15,2.29v-6a55.36,55.36,0,0,1-14.57-2.07Zm16.15,2.29a37.82,37.82,0,0,0,7.4-.58l-1.23-5.87a32,32,0,0,1-6.17.45Zm7.51-.61a11.67,11.67,0,0,0,5-2.33l-4-4.48a6.23,6.23,0,0,1-2.44,1ZM1085,73.6a6.69,6.69,0,0,0,2-4.81h-6a.69.69,0,0,1-.28.57Zm2-4.81a7.26,7.26,0,0,0-4.3-6.5L1080,67.61c1.09.57,1.08,1,1.08,1.18Zm-4.3-6.5a29.85,29.85,0,0,0-8-2.58l-1.18,5.88a24.37,24.37,0,0,1,6.37,2Zm-7.87-2.56c-3-.7-6.18-1.39-9.71-2.07L1064,63.54q5.21,1,9.48,2Zm-9.64-2.06a101.17,101.17,0,0,1-10.32-2.86L1053,60.5a105.86,105.86,0,0,0,10.93,3ZM1055,54.82a40,40,0,0,1-9-4.41l-3.3,5A46.5,46.5,0,0,0,1053,60.5Zm-9-4.38a19.66,19.66,0,0,1-6.11-6.68l-5.22,3a25.55,25.55,0,0,0,8,8.68Zm-6.09-6.65a21.6,21.6,0,0,1-2.32-10.58h-6a27.66,27.66,0,0,0,3.06,13.48Zm-2.32-10.58a23.28,23.28,0,0,1,4.09-13.42l-5-3.37a29.25,29.25,0,0,0-5.13,16.79Zm4.08-13.41c2.79-4.06,7-7.41,12.7-10l-2.44-5.49c-6.54,2.91-11.67,6.91-15.2,12.06Zm12.69-10c5.74-2.51,13-3.84,22-3.84V0c-9.49,0-17.65,1.4-24.37,4.35Zm22-3.84a81.28,81.28,0,0,1,17.28,1.85L1094.81,2a86.89,86.89,0,0,0-18.56-2Zm17.28,1.85a53.85,53.85,0,0,1,15,5.57l3-5.23A59.85,59.85,0,0,0,1094.81,2Zm13.74,1.81-9.09,21.89,5.54,2.3L1112.81,12Zm-5,20.35a71.86,71.86,0,0,0-13.5-5.21l-1.54,5.8a65.21,65.21,0,0,1,12.35,4.78Zm-13.49-5.2A49.06,49.06,0,0,0,1076,23v6a42.75,42.75,0,0,1,11.25,1.56ZM1076,23a27.86,27.86,0,0,0-7.77.89l1.72,5.75a22.26,22.26,0,0,1,6-.64Zm-7.77.89a10.92,10.92,0,0,0-5.08,2.92l4.46,4a5.42,5.42,0,0,1,2.34-1.18ZM1063,27a7.4,7.4,0,0,0-1.68,4.69h6a1.4,1.4,0,0,1,.36-.94Zm-1.68,4.69c0,3,1.88,5.11,4.29,6.37l2.79-5.31a2.7,2.7,0,0,1-1-.74.44.44,0,0,1-.1-.32Zm4.39,6.42a34.29,34.29,0,0,0,7.73,2.41l1.21-5.88a28.8,28.8,0,0,1-6.36-1.94Zm7.75,2.41c3,.6,6.23,1.24,9.74,1.92l1.15-5.88-9.72-1.92Zm9.75,1.93a75.85,75.85,0,0,1,10.22,2.7l1.94-5.67a81,81,0,0,0-11-2.93Zm10.22,2.7a37.39,37.39,0,0,1,8.89,4.39l3.36-5a43.25,43.25,0,0,0-10.31-5.09Zm8.92,4.41a19.12,19.12,0,0,1,6.2,6.65l5.22-3a25.15,25.15,0,0,0-8.13-8.71Zm6.2,6.65a20.57,20.57,0,0,1,2.3,10.3h6a26.45,26.45,0,0,0-3.08-13.26Zm2.3,10.3a23.2,23.2,0,0,1-4.21,13.41l4.95,3.39a29.19,29.19,0,0,0,5.26-16.8Zm-4.22,13.42c-2.69,4-6.82,7.32-12.59,10l2.5,5.46c6.53-3,11.61-7,15.06-12Zm-12.56,10c-5.64,2.51-12.91,3.84-21.95,3.84v6c9.57,0,17.75-1.41,24.39-4.36Zm55.52,3.38-1,2.81h0Zm-16-9.73-2.06,2.18h0Zm-10.62-15-2.75,1.19h0v0Zm0-37.38-2.74-1.23h0Zm10.62-14.85,2,2.2h0Zm16-9.85-1-2.82h0Zm40.45,0-1,2.8Zm16,9.85L1204,18.49h0Zm10.5,14.85-2.76,1.19v0l0,0Zm0,37.38-2.74-1.23v0h0Zm-10.5,15,2,2.2h0Zm-16,9.73-1-2.81ZM1187.51,116l.7-2.91h-.07Zm-10.5-4-1.47,2.61h0Zm-10.49-7.81,2-2.22v0h0Zm-12.29-12.16-.72-2.92-5,1.22,3.47,3.74Zm31.23-7.68,2.52-1.63L1186.82,81l-2.07.5Zm5.25,7.29-2.28,2h0Zm4.22,3.59L1193.59,98l0,0h0Zm17.29-4.74,2.28-1.94-2.11-2.48-2.3,2.3Zm13,15.36,2.3,1.93,1.63-1.94-1.64-1.93Zm-47.62-35.2-1.14-2.77h0Zm6.4-4.35-2.16-2.07h0Zm4.36-7,2.81,1h0Zm0-18.82-2.82,1h0v0Zm-4.36-7-2.21,2,.05,0,0,.05Zm-6.4-4.48-1.18,2.76h0Zm-15.74,0-1.15-2.77h0Zm-6.4,4.48-2.17-2.07h0Zm-4.22,7,2.81,1.06v0h0Zm0,18.82-2.82,1h0Zm4.22,7-2.21,2,0,.05.05,0Zm6.4,4.35-1.18,2.76h0Zm7.94,23a54.91,54.91,0,0,1-19.19-3.27l-2.08,5.62a60.81,60.81,0,0,0,21.27,3.65Zm-19.17-3.27a45.25,45.25,0,0,1-15-9.12l-4.07,4.4a51,51,0,0,0,17,10.34Zm-15-9.1a43.51,43.51,0,0,1-9.94-14l-5.48,2.45a49.47,49.47,0,0,0,11.3,15.93Zm-9.93-14a43.51,43.51,0,0,1-3.46-17.49h-6a49.56,49.56,0,0,0,4,19.88Zm-3.46-17.49a42.94,42.94,0,0,1,3.46-17.48l-5.5-2.42a49,49,0,0,0-4,19.9Zm3.45-17.46a42,42,0,0,1,9.92-13.88l-4.07-4.4a48,48,0,0,0-11.33,15.82Zm9.94-13.9a44.38,44.38,0,0,1,15-9.23l-2.11-5.61a50,50,0,0,0-17,10.48Zm15-9.22A54.91,54.91,0,0,1,1169.85,6V0a60.81,60.81,0,0,0-21.27,3.64ZM1169.85,6A54.26,54.26,0,0,1,1189,9.26l2.1-5.61A60,60,0,0,0,1169.85,0ZM1189,9.26a44.34,44.34,0,0,1,15,9.23l4.12-4.36a50,50,0,0,0-17-10.48Zm15,9.25a40.49,40.49,0,0,1,9.78,13.84l5.51-2.38a46.58,46.58,0,0,0-11.21-15.86Zm9.81,13.89a41.71,41.71,0,0,1,3.57,17.45h6a47.71,47.71,0,0,0-4.11-19.93Zm3.57,17.45a42.26,42.26,0,0,1-3.58,17.46l5.48,2.45a48.27,48.27,0,0,0,4.1-19.91Zm-3.6,17.49a41.78,41.78,0,0,1-9.8,14l4.12,4.36a47.85,47.85,0,0,0,11.19-16Zm-9.78,14a45.21,45.21,0,0,1-15,9.12l2.1,5.62a51.08,51.08,0,0,0,17-10.34Zm-15,9.12a54.26,54.26,0,0,1-19.17,3.27v6a60.21,60.21,0,0,0,21.27-3.65Zm10.14,23.87a47.29,47.29,0,0,1-11-1.19l-1.39,5.83a52.85,52.85,0,0,0,12.34,1.36Zm-11-1.21a35.46,35.46,0,0,1-9.68-3.66l-2.89,5.26a42,42,0,0,0,11.31,4.27Zm-9.65-3.65a56.13,56.13,0,0,1-10-7.41l-4,4.44a62,62,0,0,0,11,8.2Zm-10-7.44q-5.37-4.74-12.08-12l-4.4,4.08q6.85,7.37,12.5,12.37ZM1155,95l31.23-7.68-1.43-5.83-31.24,7.68Zm28-9a74.08,74.08,0,0,0,5.48,7.61l4.57-3.89a70,70,0,0,1-5-7Zm5.48,7.61a17.11,17.11,0,0,0,5.16,4.32l2.69-5.37a11,11,0,0,1-3.28-2.84Zm5.23,4.35a14.29,14.29,0,0,0,6.14,1.31v-6a8.24,8.24,0,0,1-3.59-.74Zm6.14,1.31c5.4,0,10.27-2.37,14.54-6.64l-4.25-4.24c-3.41,3.41-6.82,4.88-10.29,4.88Zm10.13-6.82L1223,107.86l4.57-3.89L1214.5,88.61ZM1223,104c-5.77,6.84-13.59,10.32-23.82,10.32v6c11.78,0,21.37-4.11,28.41-12.46Zm-53.13-28.73a22.58,22.58,0,0,0,9-1.78L1176.47,68a16.43,16.43,0,0,1-6.62,1.3Zm9-1.77a21.41,21.41,0,0,0,7.43-5l-4.35-4.14a15.55,15.55,0,0,1-5.37,3.65Zm7.42-5a23.32,23.32,0,0,0,5-8.06l-5.62-2.1a17.5,17.5,0,0,1-3.71,6Zm5-8.08a30.64,30.64,0,0,0,1.71-10.5h-6a24.7,24.7,0,0,1-1.35,8.44Zm1.71-10.5a29.56,29.56,0,0,0-1.72-10.4l-5.62,2.11a23.61,23.61,0,0,1,1.34,8.29Zm-1.71-10.37a22.08,22.08,0,0,0-5-8.14l-4.25,4.25a15.92,15.92,0,0,1,3.66,5.94Zm-5-8a20.72,20.72,0,0,0-7.47-5.23l-2.29,5.55a14.58,14.58,0,0,1,5.33,3.73Zm-7.43-5.21a22.58,22.58,0,0,0-9-1.78v6a16.6,16.6,0,0,1,6.62,1.29Zm-9-1.78a23.63,23.63,0,0,0-9.09,1.76l2.3,5.55a17.45,17.45,0,0,1,6.79-1.31Zm-9.12,1.78a22.4,22.4,0,0,0-7.39,5.16l4.34,4.15a16.29,16.29,0,0,1,5.41-3.8Zm-7.39,5.16a22.76,22.76,0,0,0-4.87,8.09l5.64,2.05a16.79,16.79,0,0,1,3.57-6Zm-4.86,8.06a29.55,29.55,0,0,0-1.73,10.4h6a23.38,23.38,0,0,1,1.35-8.29Zm-1.73,10.4a30.64,30.64,0,0,0,1.72,10.5l5.64-2.06a24.45,24.45,0,0,1-1.36-8.44Zm1.73,10.52a24.24,24.24,0,0,0,4.82,8l4.43-4a18.61,18.61,0,0,1-3.63-6.07Zm4.91,8.11a23.31,23.31,0,0,0,7.34,5l2.36-5.52a17.4,17.4,0,0,1-5.46-3.71Zm7.37,5a23.45,23.45,0,0,0,9.09,1.77v-6a17.45,17.45,0,0,1-6.79-1.31Zm81.36,12.08L1240,87.72ZM1230.6,5.05v-3h-3v3Zm30.21,0h3v-3h-3Zm3.71,63-2.28,2v0h0Zm20,0-2.28-1.94h0Zm3.71-63v-3h-3v3Zm29.7,0h3v-3h-3Zm-11.52,80.51-2.09-2.16Zm-32.13,8.14c-13.19,0-23.07-3.56-30-10.3L1240,87.72c8.38,8.1,19.93,12,34.21,12Zm-30-10.3c-7-6.72-10.61-16.27-10.61-29.07h-6c0,14,4,25.26,12.44,33.39ZM1233.6,54.33V5.05h-6V54.33Zm-3-46.28h30.21v-6H1230.6Zm27.21-3V53.43h6V5.05Zm0,48.38c0,7,1.25,12.81,4.43,16.54l4.57-3.89c-1.77-2.07-3-6-3-12.65ZM1262.27,70a15.58,15.58,0,0,0,12.24,5.25v-6a9.63,9.63,0,0,1-7.73-3.21Zm12.24,5.25c5,0,9.22-1.69,12.27-5.29l-4.58-3.88c-1.72,2-4.16,3.17-7.69,3.17ZM1286.77,70c3.19-3.73,4.43-9.5,4.43-16.54h-6c0,6.62-1.23,10.58-3,12.65Zm4.43-16.54V5.05h-6V53.43Zm-3-45.38h29.7v-6h-29.7Zm26.7-3V54.33h6V5.05Zm0,49.28c0,12.8-3.65,22.35-10.61,29.07l4.17,4.32c8.41-8.13,12.44-19.4,12.44-33.39ZM1304.29,83.4c-7,6.74-16.85,10.3-30,10.3v6c14.29,0,25.83-3.88,34.21-12Zm55.1-45.07v-3h-3v3Zm39.94,0h3v-3h-3Zm0,21.76v3h3v-3Zm-39.94,0h-3v3h3Zm2,11.77h-3v3h3Zm44.8,0h3v-3h-3Zm0,22.79v3h3v-3Zm-74.49,0h-3v3h3Zm0-89.6v-3h-3v3Zm72.83,0h3v-3h-3Zm0,22.78v3h3v-3Zm-43.14,0v-3h-3v3Zm-2,13.5h39.94v-6h-39.94Zm36.94-3V60.09h6V38.33Zm3,18.76h-39.94v6h39.94Zm-36.94,3V38.33h-6V60.09Zm-1,14.77h44.8v-6h-44.8Zm41.8-3V94.65h6V71.86Zm3,19.79h-74.49v6h74.49Zm-71.49,3V5.05h-6v89.6Zm-3-86.6h72.83v-6h-72.83Zm69.83-3V27.83h6V5.05Zm3,19.78h-43.14v6h43.14Zm-46.14,3v44h6v-44Zm59.43,66.82h-3v3h3Zm0-89.6v-3h-3v3Zm64.77,4.09-1.23,2.74h0Zm14.21,11.78-2.52,1.63h0Zm0,35.84,2.49,1.67h0Zm-14.21,11.39-1.19-2.75h0Zm-48,4-2-2.2-5.63,5.2h7.67Zm13.44-12.42h3V52.85l-5,4.65Zm0,35v3h3v-3Zm23.42,0L1469,96.33l.89,1.32h1.59Zm-22-32.64V59h-5.65l3.16,4.68Zm32,0,2.48-1.69-.9-1.31h-1.58Zm22.27,32.64v3h5.68l-3.2-4.69ZM1448.08,63l-2.14,2.1,5.14,5.24V63Zm-13.44-13.69v-3h-7.15l5,5.1Zm33.66-2.82-2-2.21,0,0,0,0Zm0-15.36-2.07,2.17,0,0,0,0Zm-33.66-2.82-2.14-2.1-5,5.1h7.15Zm13.44-13.69h3V7.31l-5.14,5.24Zm-27.21,80V5.05h-6v89.6Zm-3-86.6H1461v-6h-43.14Zm43.14,0c8,0,14.81,1.31,20.4,3.83l2.46-5.47c-6.53-2.95-14.18-4.36-22.86-4.36Zm20.41,3.84a28.89,28.89,0,0,1,12.91,10.66l5-3.27a34.84,34.84,0,0,0-15.5-12.88Zm12.92,10.68a28.78,28.78,0,0,1,4.5,16.27h6a34.7,34.7,0,0,0-5.49-19.57Zm4.5,16.27a28.78,28.78,0,0,1-4.5,16.27l5,3.3a34.7,34.7,0,0,0,5.49-19.57Zm-4.48,16.25a28.79,28.79,0,0,1-12.91,10.31l2.38,5.51a34.75,34.75,0,0,0,15.51-12.48ZM1481.44,65.4c-5.6,2.45-12.38,3.72-20.43,3.72v6c8.67,0,16.31-1.37,22.83-4.22ZM1461,69.12h-26.37v6H1461Zm-24.34,5.2,13.44-12.41L1446,57.5,1432.6,69.92Zm8.41-14.62v35h6V59.7Zm3,32h-30.21v6h30.21ZM1474,93l-22-32.64-5,3.36,22,32.64Zm-24.5-28h32V59h-32ZM1479,63.7l22.27,32.64,5-3.38L1484,60.32Zm24.75,28H1471.5v6h32.26Zm-53.54-30.72-13.44-13.7-4.28,4.21,13.44,13.69Zm-15.58-8.59h24.45v-6h-24.45Zm24.45,0c4.55,0,8.53-1,11.29-3.65l-4.15-4.34c-1.17,1.12-3.33,2-7.14,2Zm11.24-3.61a12.9,12.9,0,0,0,4.05-9.89h-6a6.93,6.93,0,0,1-2.1,5.47Zm4.05-9.89a12.9,12.9,0,0,0-4.05-9.89l-4,4.42a6.93,6.93,0,0,1,2.1,5.47Zm-4-9.85c-2.76-2.64-6.74-3.65-11.29-3.65v6c3.81,0,6,.87,7.14,2Zm-11.29-3.65h-24.45v6h24.45Zm-22.31,5.11,13.44-13.7-4.28-4.2L1432.5,26.24Zm8.3-15.8V63h6V14.65Zm58.44,80-2.75-1.2-1.84,4.2h4.59Zm39.17-89.6v-3h-2l-.78,1.8Zm29.69,0,2.75-1.2-.79-1.8h-2Zm39.17,89.6v3h4.59l-1.84-4.2Zm-31.23,0-2.8,1.07.74,1.93h2.06Zm-28.93-75.27v-3H1547l1.57,4.08Zm11.78,0,2.8,1.08,1.56-4.08h-4.36Zm-28.93,75.27v3h2.06l.74-1.93ZM1526.81,79,1524,78l-1.42,4h4.24Zm7.68-21.76v-3h-2.12l-.7,2Zm41.22,0,2.83-1-.71-2h-2.12ZM1583.39,79v3h4.24l-1.41-4Zm-77.12,16.82,39.16-89.6-5.49-2.4-39.17,89.6Zm36.42-87.8h29.69v-6h-29.69Zm26.94-1.8,39.17,89.6,5.5-2.4-39.17-89.6Zm41.92,85.4h-31.23v6h31.23Zm-28.43,1.92-28.93-75.26-5.6,2.15,28.93,75.26Zm-31.73-71.19h11.78v-6h-11.78Zm9-4.07-28.93,75.26,5.6,2.15L1566,20.46Zm-26.13,73.34h-30.72v6h30.72ZM1529.64,80l7.68-21.76-5.65-2L1524,78Zm4.85-19.76h41.22v-6h-41.22Zm38.39-2L1580.56,80l5.66-2-7.68-21.76ZM1583.39,76h-56.58v6h56.58Zm33,18.62h-3v3h3Zm0-89.6v-3h-3v3Zm70.53,5.5-1.31,2.7h0Zm17.79,15.36-2.52,1.62Zm0,47.87,2.53,1.62h0ZM1686.9,89.27l1.28,2.72h0ZM1646.58,71.1h-3v3h3Zm23.81-2.44L1669.05,66h0Zm7.55-7.16,2.61,1.48v0h0Zm0-23.3,2.61-1.48ZM1670.39,31,1669,33.7h0Zm-23.81-2.43v-3h-3v3Zm-27.21,66.05V5.05h-6v89.6Zm-3-86.6h44.16v-6h-44.16Zm44.16,0c9.62,0,17.94,1.76,25.06,5.2l2.61-5.4c-8.07-3.9-17.32-5.8-27.67-5.8Zm25.09,5.22a38.74,38.74,0,0,1,16.55,14.26l5-3.24a44.77,44.77,0,0,0-19-16.45Zm16.55,14.26c3.9,6.1,5.92,13.45,5.92,22.19h6c0-9.69-2.25-18.21-6.87-25.43Zm5.92,22.19c0,8.83-2,16.27-5.93,22.46l5.07,3.21c4.61-7.3,6.86-15.9,6.86-25.67Zm-5.92,22.44a39.62,39.62,0,0,1-16.58,14.41l2.61,5.4a45.58,45.58,0,0,0,19-16.57Zm-16.55,14.4c-7.13,3.36-15.47,5.09-25.09,5.09v6c10.35,0,19.59-1.86,27.65-5.66Zm-25.09,5.09h-44.16v6h44.16Zm-14-17.55h12.67v-6h-12.67Zm12.67,0a27.06,27.06,0,0,0,12.51-2.77L1669,66a21.16,21.16,0,0,1-9.77,2.1Zm12.48-2.75a20.59,20.59,0,0,0,8.82-8.37l-5.22-3a14.51,14.51,0,0,1-6.28,6Zm8.83-8.4a26.93,26.93,0,0,0,3.07-13.23h-6A21,21,0,0,1,1675.31,60Zm3.07-13.23a26,26,0,0,0-3.08-13l-5.22,3a20,20,0,0,1,2.3,10Zm-3.08-13a20.54,20.54,0,0,0-8.82-8.37l-2.68,5.37a14.51,14.51,0,0,1,6.28,6Zm-8.79-8.36a27.05,27.05,0,0,0-12.51-2.76v6a21.16,21.16,0,0,1,9.77,2.1Zm-12.51-2.76h-12.67v6h12.67Zm-15.67,3V71.1h6V28.6Zm106.19,9.73v-3h-3v3Zm39.94,0h3v-3h-3Zm0,21.76v3h3v-3Zm-39.94,0h-3v3h3Zm2,11.77h-3v3h3Zm44.8,0h3v-3h-3Zm0,22.79v3h3v-3Zm-74.5,0h-3v3h3Zm0-89.6v-3h-3v3Zm72.83,0h3v-3h-3Zm0,22.78v3h3v-3Zm-43.13,0v-3h-3v3Zm-2,13.5h39.94v-6h-39.94Zm36.94-3V60.09h6V38.33Zm3,18.76h-39.94v6h39.94Zm-36.94,3V38.33h-6V60.09Zm-1,14.77h44.8v-6h-44.8Zm41.8-3V94.65h6V71.86Zm3,19.79h-74.5v6h74.5Zm-71.5,3V5.05h-6v89.6Zm-3-86.6H1795v-6h-72.83Zm69.83-3V27.83h6V5.05Zm3,19.78h-43.13v6H1795Zm-46.13,3v44h6v-44Z"/></g></g></g></svg>